<svg version="1.1" id="Layer_1" xmlns="http://www.w3.org/2000/svg" xmlns:xlink="http://www.w3.org/1999/xlink" x="0px" y="0px"
	 width="100%" viewBox="0 0 108 113" enable-background="new 0 0 108 113" xml:space="preserve">
<path fill="#FFFFFE" opacity="1.000000" stroke="none" 
	d="
M67.000000,114.000000 
	C44.666668,114.000000 22.833334,114.000000 1.000000,114.000000 
	C1.000000,76.333336 1.000000,38.666668 1.000000,1.000000 
	C37.000000,1.000000 73.000000,1.000000 109.000000,1.000000 
	C109.000000,38.666668 109.000000,76.333336 109.000000,114.000000 
	C95.166664,114.000000 81.333336,114.000000 67.000000,114.000000 
M24.403816,28.173939 
	C23.776699,29.372267 23.277882,30.662365 22.498581,31.751839 
	C20.089708,35.119488 16.854347,38.109276 15.301707,41.816174 
	C13.743418,45.536564 14.422105,50.156200 13.052793,54.001560 
	C10.455056,61.296623 13.484178,67.991371 15.163260,74.506142 
	C16.455935,79.521667 20.447758,84.016754 23.853075,88.249519 
	C26.038177,90.965576 29.101349,93.222939 32.198380,94.893394 
	C35.870312,96.873940 39.934238,98.226852 43.953438,99.435600 
	C47.708160,100.564819 51.614937,101.215714 55.485691,101.903130 
	C56.079880,102.008652 56.797131,101.017189 57.534435,100.818123 
	C58.570160,100.538460 59.686676,100.575775 60.753319,100.389687 
	C64.679024,99.704788 68.600037,98.992355 72.516907,98.258759 
	C72.812302,98.203423 73.249710,97.942459 73.302750,97.705750 
	C73.847290,95.275368 75.163834,94.699516 77.614044,95.197647 
	C78.527214,95.383308 79.817581,94.051094 80.839386,93.282593 
	C82.229805,92.236855 83.543655,91.086464 84.858902,89.944733 
	C85.586563,89.313072 86.447205,88.720451 86.908272,87.915657 
	C88.858429,84.511612 90.776382,81.081970 92.524727,77.571365 
	C94.434464,73.736687 96.163994,69.811226 97.908798,65.897133 
	C98.075462,65.523262 97.744850,64.950859 97.728004,64.467728 
	C97.676849,63.000782 97.680862,61.531990 97.637291,60.064693 
	C97.522240,56.190720 97.396278,52.317051 97.253410,48.444042 
	C97.249908,48.349163 96.932297,48.294823 96.872009,48.168633 
	C96.225479,46.815323 95.577393,45.461761 94.977806,44.087296 
	C94.399376,42.761337 93.943245,41.378716 93.311539,40.080261 
	C92.708260,38.840210 91.941429,37.680252 91.258568,36.478226 
	C90.628227,35.368671 90.140984,34.149593 89.359871,33.161182 
	C88.416428,31.967363 86.417717,31.048615 86.296875,29.865639 
	C85.891647,25.898773 83.513115,25.464111 80.642128,25.298513 
	C79.384850,23.553856 78.010803,21.913017 76.253731,21.101088 
	C71.917793,19.097494 67.420082,17.437698 62.952972,15.729740 
	C62.095379,15.401847 61.052914,15.285787 60.142647,15.411552 
	C54.344292,16.212671 48.519287,16.908504 42.784088,18.047127 
	C39.200047,18.758678 35.533516,19.752472 32.319317,21.420094 
	C29.478117,22.894196 27.211826,25.476387 24.403816,28.173939 
z"/>
<path fill="#ECA438" opacity="1.000000" stroke="none" 
	d="
M24.547760,27.871639 
	C27.211826,25.476387 29.478117,22.894196 32.319317,21.420094 
	C35.533516,19.752472 39.200047,18.758678 42.784088,18.047127 
	C48.519287,16.908504 54.344292,16.212671 60.142647,15.411552 
	C61.052914,15.285787 62.095379,15.401847 62.952972,15.729740 
	C67.420082,17.437698 71.917793,19.097494 76.253731,21.101088 
	C78.010803,21.913017 79.384850,23.553856 80.642128,25.298513 
	C83.513115,25.464111 85.891647,25.898773 86.296875,29.865639 
	C86.417717,31.048615 88.416428,31.967363 89.359871,33.161182 
	C90.140984,34.149593 90.628227,35.368671 91.258568,36.478226 
	C91.941429,37.680252 92.708260,38.840210 93.311539,40.080261 
	C93.943245,41.378716 94.399376,42.761337 94.977806,44.087296 
	C95.577393,45.461761 96.225479,46.815323 96.872009,48.168633 
	C96.932297,48.294823 97.249908,48.349163 97.253410,48.444042 
	C97.396278,52.317051 97.522240,56.190720 97.637291,60.064693 
	C97.680862,61.531990 97.676849,63.000782 97.728004,64.467728 
	C97.744850,64.950859 98.075462,65.523262 97.908798,65.897133 
	C96.163994,69.811226 94.434464,73.736687 92.524727,77.571365 
	C90.776382,81.081970 88.858429,84.511612 86.908272,87.915657 
	C86.447205,88.720451 85.586563,89.313072 84.858902,89.944733 
	C83.543655,91.086464 82.229805,92.236855 80.839386,93.282593 
	C79.817581,94.051094 78.527214,95.383308 77.614044,95.197647 
	C75.163834,94.699516 73.847290,95.275368 73.302750,97.705750 
	C73.249710,97.942459 72.812302,98.203423 72.516907,98.258759 
	C68.600037,98.992355 64.679024,99.704788 60.753319,100.389687 
	C59.686676,100.575775 58.570160,100.538460 57.534435,100.818123 
	C56.797131,101.017189 56.079880,102.008652 55.485691,101.903130 
	C51.614937,101.215714 47.708160,100.564819 43.953438,99.435600 
	C39.934238,98.226852 35.870312,96.873940 32.198380,94.893394 
	C29.101349,93.222939 26.038177,90.965576 23.853075,88.249519 
	C20.447758,84.016754 16.455935,79.521667 15.163260,74.506142 
	C13.484178,67.991371 10.455056,61.296623 13.052793,54.001560 
	C14.422105,50.156200 13.743418,45.536564 15.301707,41.816174 
	C16.854347,38.109276 20.089708,35.119488 22.498581,31.751839 
	C23.277882,30.662365 23.776699,29.372267 24.547760,27.871639 
M52.194931,34.721249 
	C50.174599,35.321865 48.154266,35.922478 46.115547,36.528561 
	C46.115547,40.858009 46.115547,44.813606 46.115547,49.120461 
	C47.816853,49.120461 49.329884,49.120461 51.209969,49.120461 
	C51.209969,61.876991 51.209969,74.283546 51.209969,86.705513 
	C55.312122,86.705513 59.028107,86.705513 62.799683,86.705513 
	C62.799683,68.291245 62.799683,50.238773 62.799683,31.657755 
	C59.263680,32.643543 56.105919,33.523880 52.194931,34.721249 
z"/>
<path fill="#FFFFFF" opacity="1.000000" stroke="none" 
	d="
M52.571541,34.562737 
	C56.105919,33.523880 59.263680,32.643543 62.799683,31.657755 
	C62.799683,50.238773 62.799683,68.291245 62.799683,86.705513 
	C59.028107,86.705513 55.312122,86.705513 51.209969,86.705513 
	C51.209969,74.283546 51.209969,61.876991 51.209969,49.120461 
	C49.329884,49.120461 47.816853,49.120461 46.115547,49.120461 
	C46.115547,44.813606 46.115547,40.858009 46.115547,36.528561 
	C48.154266,35.922478 50.174599,35.321865 52.571541,34.562737 
z"/>
</svg>