<svg version="1.1" id="Layer_1" xmlns="http://www.w3.org/2000/svg" xmlns:xlink="http://www.w3.org/1999/xlink" x="0px" y="0px"
	 width="100%" viewBox="0 0 2751 2898" enable-background="new 0 0 2751 2898" xml:space="preserve">
<path fill="#FFFFFF" opacity="1.000000" stroke="none" 
	d="
M1386.000000,2.000000 
	C1841.967163,2.000000 2297.934326,2.000000 2753.950684,2.000000 
	C2753.950684,967.897766 2753.950684,1933.795532 2753.950684,2899.846680 
	C1836.834839,2899.846680 919.669678,2899.846680 2.252239,2899.846680 
	C2.252239,1934.237671 2.252239,968.475220 2.252239,2.000000 
	C460.061615,2.000000 918.123596,2.000000 1377.375732,2.900246 
	C1378.370117,12.940248 1379.869507,22.184841 1377.604004,31.106377 
	C1351.036499,32.435986 1325.200317,33.728996 1298.705933,35.054951 
	C1297.501709,25.610369 1296.300415,16.188189 1295.012817,6.089048 
	C1267.365967,9.136940 1240.535522,12.372663 1213.607788,18.590761 
	C1215.353394,28.531677 1216.942505,37.581623 1218.589722,46.962093 
	C1192.379150,53.603222 1167.028687,60.026436 1141.119873,66.591118 
	C1137.924072,57.237118 1134.883057,48.336494 1131.429321,38.227707 
	C1104.859131,47.943367 1079.685547,57.148361 1054.114624,66.498642 
	C1058.118164,76.607368 1061.609375,85.422287 1065.097168,94.228661 
	C1040.407349,106.129906 1016.865417,117.477829 992.851868,129.053101 
	C987.929810,120.261955 983.420532,112.208000 978.536804,103.485222 
	C954.210999,117.137604 930.632935,130.542862 908.281738,146.847672 
	C913.701172,155.249283 918.706787,163.009293 923.964050,171.159424 
	C902.547363,187.386002 881.682190,203.194687 860.202942,219.468674 
	C853.700745,212.112350 847.399353,204.983215 840.376526,197.037949 
	C820.026917,215.775558 800.280212,233.957947 779.875427,252.746323 
	C787.413330,260.502380 794.071655,267.353424 800.933655,274.413971 
	C782.969971,294.673187 765.432739,314.451416 747.702698,334.447144 
	C739.846985,328.374634 732.542969,322.728638 724.616089,316.601135 
	C707.124817,338.332550 690.920105,359.969940 676.594360,383.751160 
	C685.068604,389.420654 692.725952,394.543640 700.525635,399.761810 
	C686.944092,423.140320 673.797363,445.770416 660.184937,469.202026 
	C651.686829,464.999786 643.435791,460.919708 634.219482,456.362366 
	C620.799500,480.745880 610.260376,505.665100 599.876282,531.306824 
	C609.207031,535.278870 617.948120,538.999939 626.812195,542.773315 
	C618.077820,568.522644 609.672791,593.301025 601.070251,618.661621 
	C591.556335,616.127014 582.647522,613.753662 573.019165,611.188538 
	C565.474915,638.047913 559.011047,664.300964 554.649353,691.664062 
	C564.611267,693.637329 573.899231,695.477112 583.132568,697.306030 
	C579.671265,724.284058 576.346436,750.198486 573.031067,776.039246 
	C563.097473,776.039246 553.902710,776.039246 544.244568,776.039246 
	C541.440857,803.507202 541.118164,830.492798 542.256470,858.328247 
	C552.668762,858.328247 561.833557,858.328247 570.986450,858.328247 
	C572.822327,885.169617 574.602356,911.195190 576.404358,937.541504 
	C566.406494,938.930359 557.572449,940.157593 547.590271,941.544312 
	C551.555542,969.124512 554.885193,996.161316 562.278320,1022.678345 
	C572.638916,1020.706299 581.600830,1019.000488 590.352722,1017.334656 
	C597.668640,1043.684326 604.585327,1068.596191 611.685791,1094.170044 
	C602.701050,1097.473267 593.840454,1100.730713 584.333618,1104.225952 
	C593.316040,1130.890625 602.343872,1156.325439 614.565552,1180.795166 
	C624.232910,1176.715210 632.677490,1173.151245 641.024719,1169.628418 
	C653.445068,1193.965332 665.356384,1217.304810 677.438171,1240.978149 
	C669.130676,1246.037231 661.003845,1250.986328 652.532593,1256.145142 
	C666.264221,1280.507812 680.722229,1303.101807 697.031738,1325.221924 
	C705.549133,1319.496826 713.399109,1314.220337 721.157959,1309.005127 
	C738.146423,1330.430542 754.393311,1350.920776 771.029297,1371.901733 
	C763.617798,1378.480957 756.691467,1384.629272 748.648438,1391.769043 
	C767.948669,1411.729736 786.817627,1431.244263 806.211548,1451.301880 
	C813.904724,1443.620361 820.653137,1436.882202 827.501282,1430.044312 
	C847.821594,1447.286865 867.976562,1464.388916 888.325012,1481.655273 
	C882.332642,1489.703247 876.812988,1497.116455 870.447510,1505.665649 
	C893.497559,1521.523193 915.882385,1536.923218 938.567261,1552.529663 
	C944.470947,1543.349731 949.613403,1535.353516 954.766296,1527.341064 
	C978.649353,1540.518555 1001.556458,1553.157593 1024.906128,1566.040894 
	C1020.819580,1574.939087 1016.981873,1583.295410 1012.766968,1592.473145 
	C1037.822754,1604.827393 1062.538330,1615.749756 1088.790161,1624.782715 
	C1092.383545,1615.244751 1095.635132,1606.614380 1098.988525,1597.713501 
	C1125.006470,1605.844482 1150.234497,1613.728760 1175.833862,1621.728882 
	C1173.505859,1631.172607 1171.308350,1640.087280 1168.880859,1649.934814 
	C1196.118408,1657.185425 1222.505249,1662.639648 1249.712646,1666.335327 
	C1251.550781,1656.119141 1253.175659,1647.089111 1254.824951,1637.923096 
	C1281.790405,1640.780151 1307.777710,1643.533447 1334.218506,1646.334961 
	C1334.218506,1656.337769 1334.218506,1665.521606 1334.218506,1675.387085 
	C1361.562866,1676.572510 1388.347046,1676.844604 1415.810913,1675.573486 
	C1415.810913,1665.373413 1415.810913,1656.198975 1415.810913,1646.702637 
	C1442.493408,1644.147461 1468.533691,1641.653809 1495.088257,1639.110840 
	C1496.672852,1648.536011 1498.244263,1657.883301 1499.924561,1667.878174 
	C1527.722412,1663.641846 1554.306763,1659.104614 1580.767822,1651.682495 
	C1578.421997,1641.571899 1576.340454,1632.600220 1574.255005,1623.612061 
	C1600.274902,1615.775146 1625.579468,1608.153687 1651.177246,1600.443848 
	C1654.659790,1609.618408 1657.915527,1618.195312 1661.509277,1627.662598 
	C1687.936279,1618.029663 1713.137939,1608.406860 1737.489868,1595.651245 
	C1733.108887,1586.102051 1729.288940,1577.775879 1725.517944,1569.556396 
	C1749.632324,1556.530273 1772.661987,1544.089966 1796.304688,1531.318604 
	C1801.561646,1539.828369 1806.538574,1547.884766 1811.733032,1556.293335 
	C1835.885864,1541.577515 1858.561523,1526.707642 1880.134033,1509.898071 
	C1874.108154,1501.505615 1868.573975,1493.797974 1863.108398,1486.185669 
	C1884.209595,1468.730103 1904.378174,1452.046143 1924.901855,1435.068359 
	C1931.738892,1442.319946 1938.112183,1449.079712 1944.709595,1456.077148 
	C1965.854858,1438.058472 1984.599121,1418.441528 2002.856812,1397.318115 
	C1995.321411,1390.389160 1988.330322,1383.960693 1981.451294,1377.635132 
	C1998.607788,1356.477539 2015.106567,1336.131104 2032.071045,1315.210571 
	C2039.925781,1320.750977 2047.453979,1326.061279 2055.965576,1332.065186 
	C2072.121826,1309.475830 2087.480713,1287.186890 2100.968262,1263.016968 
	C2092.380859,1257.700439 2084.532227,1252.841187 2076.319336,1247.756226 
	C2088.774902,1223.834595 2100.860840,1200.623291 2113.286865,1176.758423 
	C2122.116455,1180.590454 2130.569824,1184.259399 2140.059326,1188.377930 
	C2151.853271,1163.226074 2162.177490,1137.999512 2170.556885,1111.652710 
	C2160.763916,1108.089722 2152.138916,1104.951660 2143.350586,1101.754150 
	C2150.937256,1075.587891 2158.203613,1050.526367 2165.611816,1024.976318 
	C2175.352539,1026.938843 2184.339844,1028.749512 2194.173340,1030.730713 
	C2200.065674,1003.345093 2206.150879,977.073181 2208.353027,949.600708 
	C2198.259033,948.087830 2189.474854,946.771240 2180.047363,945.358276 
	C2182.247314,918.722717 2184.397461,892.689270 2186.641846,865.516541 
	C2196.310791,865.516541 2205.716309,865.516541 2215.479492,865.516541 
	C2216.604492,837.554565 2216.752686,810.801880 2213.686768,783.833618 
	C2203.611328,783.833618 2194.425537,783.833618 2185.102783,783.833618 
	C2182.018311,757.376831 2178.993408,731.431885 2175.917236,705.046936 
	C2185.593262,703.189270 2194.607666,701.458618 2204.366211,699.585083 
	C2199.970703,672.078613 2194.461914,645.701599 2186.722168,619.087952 
	C2176.702637,621.633850 2167.805420,623.894653 2158.597900,626.234253 
	C2150.210449,600.561829 2142.088867,575.703552 2133.703857,550.038635 
	C2142.709717,546.336853 2151.468506,542.736572 2160.748779,538.922058 
	C2150.526367,512.760925 2139.980225,487.848999 2127.229736,463.472046 
	C2117.933350,468.051483 2109.637451,472.138000 2101.112061,476.337585 
	C2087.798828,452.904022 2074.844482,430.102081 2061.410889,406.455994 
	C2069.563477,401.069519 2077.704346,395.690887 2086.490967,389.885559 
	C2070.236084,366.988647 2054.693115,345.094727 2038.677002,322.534302 
	C2029.944336,329.163452 2022.395874,334.893494 2014.818359,340.645660 
	C1996.869507,319.953735 1979.541016,299.976929 1961.849487,279.581635 
	C1968.914062,272.537231 1975.450073,266.019897 1982.439331,259.050720 
	C1962.983521,239.795837 1944.534180,219.875839 1922.641357,202.939270 
	C1916.016113,210.517593 1909.922485,217.487915 1903.616455,224.701065 
	C1882.145752,208.119171 1861.198120,191.941284 1839.916138,175.505234 
	C1845.515503,167.296616 1850.873047,159.442566 1856.865234,150.658234 
	C1833.153320,135.890182 1810.340210,121.681923 1786.706543,106.962616 
	C1781.383789,116.052269 1776.577271,124.260178 1771.579346,132.795151 
	C1747.179077,120.740715 1723.502441,109.043800 1699.628296,97.249237 
	C1703.494629,87.985489 1707.033569,79.505951 1710.796509,70.490105 
	C1685.082764,58.933350 1659.747925,49.471844 1633.323853,41.656105 
	C1630.090576,51.254288 1627.160522,59.952251 1624.125732,68.961533 
	C1597.850098,62.049870 1572.535156,55.390942 1546.590088,48.566208 
	C1548.381714,39.229069 1550.163696,29.942072 1552.084351,19.932585 
	C1524.637329,14.417275 1498.149780,9.080064 1470.524780,7.580652 
	C1469.266968,17.516752 1468.151123,26.331800 1466.949829,35.822407 
	C1440.132324,34.236149 1413.747437,32.675484 1386.000000,31.034222 
	C1386.000000,21.133856 1386.000000,11.566928 1386.000000,2.000000 
M746.999023,2373.707520 
	C732.122070,2373.707520 717.245056,2373.707520 702.323914,2373.707520 
	C701.805115,2379.265137 701.415100,2383.443359 701.042175,2387.437988 
	C685.614502,2389.281494 625.810059,2388.633545 618.780762,2386.604248 
	C618.366882,2382.521729 617.946777,2378.377686 617.540710,2374.371582 
	C589.521729,2374.371582 562.361694,2374.371582 534.763977,2374.371582 
	C534.405823,2379.146973 534.093933,2383.304688 533.768005,2387.649902 
	C506.184937,2387.649902 479.378021,2387.649902 452.363434,2387.649902 
	C451.877655,2382.886230 451.451691,2378.709229 451.016418,2374.440918 
	C423.295532,2374.440918 396.186676,2374.440918 368.893524,2374.440918 
	C368.398376,2379.295166 367.975128,2383.444580 367.541382,2387.697021 
	C339.685760,2387.697021 312.521240,2387.697021 284.750580,2387.697021 
	C284.413910,2383.013184 284.114502,2378.848145 283.785065,2374.265381 
	C256.357361,2374.265381 229.550552,2374.265381 202.232620,2374.265381 
	C201.853256,2378.934814 201.514938,2383.099121 201.146957,2387.628418 
	C173.448502,2387.628418 146.341080,2387.628418 118.743019,2387.628418 
	C118.404793,2382.874268 118.107635,2378.697510 117.748375,2373.647705 
	C89.614563,2374.050049 62.200867,2373.079346 33.467945,2374.266602 
	C33.056351,2393.944336 32.686344,2412.482910 32.262299,2431.020264 
	C32.196281,2433.906494 31.883659,2436.786621 31.681307,2439.724365 
	C26.705950,2440.191895 22.532143,2440.584229 18.287598,2440.982910 
	C18.287598,2468.938477 18.287598,2496.121826 18.287598,2523.747559 
	C22.978186,2524.149902 27.143459,2524.507080 31.603415,2524.889648 
	C31.603415,2552.596436 31.603415,2579.702148 31.603415,2607.143066 
	C26.811260,2607.565674 22.655956,2607.932373 18.351871,2608.312012 
	C18.351871,2635.841309 18.351871,2662.649414 18.351871,2689.659668 
	C23.128937,2690.141846 27.297096,2690.562500 31.300093,2690.966553 
	C33.285500,2704.923584 32.655766,2767.163818 30.521694,2773.948730 
	C26.656176,2774.204590 22.744595,2774.463379 18.306839,2774.756836 
	C18.306839,2802.450684 18.306839,2829.560059 18.306839,2857.288086 
	C23.002787,2857.601562 27.188904,2857.880859 31.595703,2858.175049 
	C32.136280,2862.913818 32.605873,2867.030029 33.173218,2872.003418 
	C46.389748,2872.003418 58.912304,2872.003418 71.594238,2872.003418 
	C72.116493,2877.098145 72.543625,2881.264893 73.060555,2886.307617 
	C100.996338,2886.172852 128.415405,2886.557617 155.869293,2886.048340 
	C156.210144,2880.731201 156.461151,2876.815674 156.748260,2872.336670 
	C184.406357,2872.336670 211.513657,2872.336670 239.239761,2872.336670 
	C239.575760,2876.968750 239.877899,2881.134033 240.212204,2885.742676 
	C267.623413,2885.742676 294.430267,2885.742676 321.778809,2885.742676 
	C322.143005,2881.092285 322.469940,2876.917480 322.818878,2872.462158 
	C350.850922,2872.462158 378.272430,2872.462158 405.702942,2872.462158 
	C406.198029,2877.373047 406.619141,2881.550293 407.022644,2885.552490 
	C424.983917,2887.438721 482.338409,2886.686279 489.186005,2884.556641 
	C489.631409,2880.434570 490.078735,2876.294678 490.505280,2872.347168 
	C511.210052,2870.586426 564.767273,2871.298828 571.819702,2873.344971 
	C572.207153,2877.513672 572.594116,2881.677246 572.960754,2885.622070 
	C601.162109,2885.622070 628.347229,2885.622070 655.713013,2885.622070 
	C656.171387,2880.805908 656.568359,2876.635010 657.038147,2871.698730 
	C684.789612,2871.880615 711.903259,2871.413086 739.085571,2871.980957 
	C739.628357,2877.403320 740.043457,2881.549805 740.445129,2885.562500 
	C768.055054,2885.562500 794.864258,2885.562500 821.728943,2885.562500 
	C822.203491,2880.668213 822.608459,2876.491211 823.013000,2872.318359 
	C850.987122,2872.318359 878.171753,2872.318359 905.664001,2872.318359 
	C906.121704,2877.041992 906.525391,2881.208008 906.950500,2885.595459 
	C934.637207,2885.595459 961.745422,2885.595459 989.115173,2885.595459 
	C989.575439,2880.780762 989.972473,2876.627441 990.378662,2872.378906 
	C1017.884033,2872.378906 1044.691406,2872.378906 1071.690796,2872.378906 
	C1072.155640,2877.180908 1072.559448,2881.351074 1072.986938,2885.766113 
	C1100.829468,2885.766113 1128.007080,2885.766113 1155.786499,2885.766113 
	C1156.121582,2881.135986 1156.422974,2876.970703 1156.758423,2872.335938 
	C1184.484863,2872.335938 1211.592041,2872.335938 1239.250000,2872.335938 
	C1239.593384,2877.054932 1239.896362,2881.218018 1240.222900,2885.706055 
	C1267.711304,2885.706055 1294.518066,2885.706055 1321.716187,2885.706055 
	C1322.138916,2881.004395 1322.514038,2876.830322 1322.873291,2872.833740 
	C1334.647461,2870.923340 1398.767090,2871.347900 1405.774414,2873.281250 
	C1406.196533,2877.459229 1406.618652,2881.636963 1407.022705,2885.634766 
	C1427.885254,2887.563232 1482.422241,2886.737793 1489.375854,2884.433838 
	C1489.642822,2880.596680 1489.913940,2876.698242 1490.221191,2872.282715 
	C1517.540039,2872.282715 1544.346436,2872.282715 1571.778687,2872.282715 
	C1572.107544,2876.851318 1572.407471,2881.016357 1572.736450,2885.585449 
	C1600.773926,2885.585449 1628.192017,2885.585449 1655.742188,2885.585449 
	C1656.197510,2880.722168 1656.588135,2876.548584 1656.962646,2872.548584 
	C1672.717896,2870.697754 1732.212646,2871.361328 1739.215576,2873.405029 
	C1739.632812,2877.492432 1740.055664,2881.635986 1740.459229,2885.589600 
	C1758.612915,2887.324463 1814.599121,2886.688232 1821.759766,2884.756836 
	C1822.199219,2880.579102 1822.638672,2876.401611 1823.064331,2872.355469 
	C1851.068359,2872.355469 1878.257446,2872.355469 1905.644897,2872.355469 
	C1906.128052,2877.128662 1906.549927,2881.296387 1906.980835,2885.552979 
	C1934.715942,2885.552979 1961.824951,2885.552979 1989.110840,2885.552979 
	C1989.606323,2880.696045 1990.030884,2876.534668 1990.451050,2872.416016 
	C2017.973022,2872.416016 2044.781128,2872.416016 2071.734619,2872.416016 
	C2072.187500,2877.264404 2072.576904,2881.437500 2072.977783,2885.728760 
	C2100.911133,2885.728760 2128.092529,2885.728760 2155.759033,2885.728760 
	C2156.147705,2881.052002 2156.493652,2876.887451 2156.868408,2872.377930 
	C2184.563965,2872.377930 2211.671387,2872.377930 2239.246826,2872.377930 
	C2239.592773,2877.145752 2239.894531,2881.303955 2240.211182,2885.668945 
	C2267.800537,2885.668945 2294.607666,2885.668945 2321.634277,2885.668945 
	C2322.121582,2880.910400 2322.548340,2876.743896 2322.958496,2872.738770 
	C2336.122803,2870.787598 2399.035645,2871.348633 2405.958252,2873.424072 
	C2406.206299,2877.287598 2406.458008,2881.202637 2406.745605,2885.678467 
	C2434.409912,2885.678467 2461.517334,2885.678467 2489.244141,2885.678467 
	C2489.581055,2881.039795 2489.883789,2876.874512 2490.218262,2872.272217 
	C2517.628418,2872.272217 2544.435059,2872.272217 2571.768311,2872.272217 
	C2572.141357,2876.934082 2572.474609,2881.098145 2572.830566,2885.548340 
	C2600.855713,2885.548340 2628.277588,2885.548340 2655.708740,2885.548340 
	C2656.203369,2880.634766 2656.624023,2876.457764 2657.125000,2871.482422 
	C2685.009033,2871.482422 2712.204590,2871.482422 2739.624268,2871.482422 
	C2739.624268,2859.455322 2739.624268,2848.327881 2739.624268,2836.762695 
	C2734.851074,2836.403809 2730.693604,2836.091309 2725.653076,2835.712402 
	C2726.049316,2807.592529 2725.125488,2780.187256 2726.187256,2752.725830 
	C2731.382324,2752.367432 2735.281494,2752.098633 2740.305664,2751.752197 
	C2740.172363,2724.252197 2740.536865,2697.207275 2740.049805,2670.125488 
	C2734.700195,2669.781494 2730.786377,2669.529785 2726.323730,2669.242676 
	C2726.323730,2641.564941 2726.323730,2614.459717 2726.323730,2586.757324 
	C2731.002686,2586.416504 2735.167480,2586.112793 2739.161621,2585.821777 
	C2741.135986,2573.235352 2740.678955,2509.988525 2738.623047,2502.769775 
	C2734.545654,2502.359375 2730.400879,2501.942139 2726.444092,2501.543945 
	C2724.738525,2484.274170 2725.356934,2427.341064 2727.242676,2420.243896 
	C2731.409668,2419.807373 2735.586914,2419.369629 2739.640625,2418.945068 
	C2739.640625,2403.629395 2739.640625,2389.118896 2739.640625,2374.334717 
	C2726.849121,2374.334717 2714.710449,2374.334717 2702.363525,2374.334717 
	C2701.876465,2379.097656 2701.450195,2383.264160 2701.011963,2387.549316 
	C2673.301025,2387.549316 2646.192627,2387.549316 2618.897705,2387.549316 
	C2618.403809,2382.698730 2617.981201,2378.549316 2617.547119,2374.286621 
	C2589.692627,2374.286621 2562.527344,2374.286621 2534.754639,2374.286621 
	C2534.416016,2378.967529 2534.114746,2383.132812 2533.782715,2387.724609 
	C2506.363525,2387.724609 2479.557129,2387.724609 2452.238037,2387.724609 
	C2451.858887,2383.058350 2451.520508,2378.894043 2451.151611,2374.355469 
	C2423.454102,2374.355469 2396.346436,2374.355469 2368.742676,2374.355469 
	C2368.401123,2379.112061 2368.102295,2383.272217 2367.817139,2387.245117 
	C2353.351318,2389.288330 2291.644287,2388.678955 2284.617676,2386.473877 
	C2284.362305,2382.658691 2284.101318,2378.757568 2283.849609,2374.993896 
	C2273.088379,2372.916992 2209.257324,2373.268066 2202.170898,2375.347168 
	C2201.786377,2379.510010 2201.401855,2383.673340 2201.035645,2387.638184 
	C2178.565186,2389.610352 2125.457031,2388.747803 2118.646973,2386.382324 
	C2118.364746,2382.513672 2118.080322,2378.617188 2117.807617,2374.877197 
	C2106.117188,2372.921875 2042.146606,2373.312988 2034.773438,2375.338623 
	C2034.366089,2379.403076 2033.950562,2383.549561 2033.550171,2387.543945 
	C2005.931763,2387.543945 1979.123413,2387.543945 1952.287354,2387.543945 
	C1951.801636,2382.641357 1951.387695,2378.464355 1950.991211,2374.463135 
	C1933.442383,2372.582031 1875.680542,2373.320312 1868.808472,2375.434814 
	C1868.367676,2379.550293 1867.924072,2383.691162 1867.507935,2387.575684 
	C1839.441895,2387.575684 1812.284546,2387.575684 1784.900269,2387.575684 
	C1784.425903,2382.757568 1784.015625,2378.590820 1783.600220,2374.371582 
	C1756.102661,2374.371582 1729.294800,2374.371582 1702.297119,2374.371582 
	C1701.834839,2379.179932 1701.433960,2383.350342 1701.049438,2387.350586 
	C1687.542725,2389.151123 1626.011841,2388.614014 1618.781860,2386.672119 
	C1618.374634,2382.611084 1617.958740,2378.464111 1617.544067,2374.328613 
	C1589.607910,2374.328613 1562.445435,2374.328613 1534.747559,2374.328613 
	C1534.402832,2379.047363 1534.097656,2383.226318 1533.771851,2387.687500 
	C1506.274902,2387.687500 1479.468506,2387.687500 1452.316528,2387.687500 
	C1451.872803,2382.971924 1451.480835,2378.805908 1451.066162,2374.397949 
	C1423.374878,2374.397949 1396.266846,2374.397949 1368.872925,2374.397949 
	C1368.426270,2379.200684 1368.038452,2383.370850 1367.669556,2387.336426 
	C1351.601074,2389.421143 1291.496460,2388.710449 1284.632324,2386.414551 
	C1284.362427,2382.569824 1284.088989,2378.671875 1283.779541,2374.264160 
	C1256.446655,2374.264160 1229.639771,2374.264160 1202.213745,2374.264160 
	C1201.884399,2378.850586 1201.585327,2383.015625 1201.251099,2387.670898 
	C1173.528198,2387.670898 1146.420898,2387.670898 1118.748047,2387.670898 
	C1118.406494,2382.959717 1118.104614,2378.796143 1117.815430,2374.808105 
	C1104.681763,2372.806641 1041.869995,2373.312500 1034.783447,2375.402344 
	C1034.363281,2379.490479 1033.936768,2383.639160 1033.530762,2387.589355 
	C1015.135803,2389.312744 959.312378,2388.662842 952.238464,2386.731201 
	C951.805359,2382.552490 951.372253,2378.373779 950.880310,2373.627686 
	C922.997803,2374.129395 895.867004,2372.966797 868.709534,2374.264648 
	C868.356323,2379.389404 868.087524,2383.289795 867.795044,2387.533447 
	C839.873962,2387.533447 812.469177,2387.533447 784.884216,2387.533447 
	C784.390076,2382.665771 783.969055,2378.517334 783.480835,2373.707275 
	C771.559387,2373.707275 760.278625,2373.707275 746.999023,2373.707520 
M330.315216,1901.000000 
	C330.315216,2018.522461 330.315216,2136.044922 330.315216,2254.335693 
	C370.343170,2254.308105 409.110535,2254.385254 448.541809,2254.281006 
	C448.541809,2212.984131 448.541809,2173.162842 448.541809,2133.341309 
	C449.153046,2133.031738 449.764282,2132.722412 450.375519,2132.412842 
	C483.754639,2175.010986 517.133728,2217.609375 551.031616,2260.869385 
	C585.162231,2217.192383 618.393555,2174.666260 651.624878,2132.139893 
	C652.376892,2132.389160 653.128845,2132.638184 653.880859,2132.887207 
	C653.880859,2173.215576 653.880859,2213.543945 653.880859,2253.763672 
	C693.692627,2253.763672 732.210388,2253.763672 771.203369,2253.763672 
	C771.203369,2115.064941 771.203369,1976.934692 771.203369,1837.669189 
	C760.856140,1837.669189 750.953369,1837.883301 741.067017,1837.573853 
	C736.516235,1837.431519 733.817566,1839.177124 731.243835,1842.777100 
	C725.442444,1850.892944 719.107239,1858.624756 713.086487,1866.586304 
	C665.326233,1929.742432 617.599426,1992.923706 569.831116,2056.073486 
	C563.740906,2064.124756 557.470947,2072.040283 551.113770,2080.238525 
	C549.666321,2078.672607 548.932007,2077.999268 548.338745,2077.218994 
	C514.916260,2033.255859 481.487640,1989.297363 448.099884,1945.307983 
	C422.353973,1911.386719 396.687286,1877.405273 370.885284,1843.526978 
	C369.178741,1841.286255 366.698456,1838.171265 364.446625,1838.057007 
	C353.301880,1837.492065 342.112885,1837.799561 330.315308,1837.799561 
	C330.315308,1859.109985 330.315308,1879.055054 330.315216,1901.000000 
M1247.610474,2076.082031 
	C1250.622559,2052.190674 1250.316406,2028.300415 1245.268311,2004.784424 
	C1232.646729,1945.987793 1198.908813,1902.046753 1148.960083,1869.659424 
	C1115.433838,1847.920532 1078.563477,1837.237183 1038.906738,1835.765381 
	C1014.562134,1834.861816 990.487366,1837.035889 966.876648,1843.573730 
	C936.222168,1852.061890 909.047302,1866.931885 884.798645,1887.374390 
	C821.709351,1940.560303 798.452332,2008.393066 812.806946,2088.824707 
	C820.908691,2134.220459 844.682617,2171.478516 879.288757,2201.845459 
	C920.430115,2237.947266 968.590698,2256.275146 1023.068665,2257.450684 
	C1038.569702,2257.785156 1054.265259,2256.235352 1069.639893,2253.974365 
	C1117.494263,2246.937012 1157.456177,2223.826660 1191.075806,2190.052734 
	C1221.932007,2159.054688 1240.900879,2121.432617 1247.610474,2076.082031 
M1538.313354,1919.000000 
	C1538.313354,1955.747314 1538.313354,1992.494507 1538.313354,2029.843018 
	C1536.330078,2028.984619 1535.659058,2028.868164 1535.228271,2028.483032 
	C1505.980591,2002.346802 1476.712524,1976.233154 1447.531494,1950.022583 
	C1407.218628,1913.813354 1366.982422,1877.518799 1326.663818,1841.316040 
	C1325.016479,1839.836914 1322.892334,1837.957520 1320.942749,1837.900879 
	C1309.726196,1837.574585 1298.495239,1837.741821 1286.799805,1837.741821 
	C1286.799805,1976.919922 1286.799805,2115.049072 1286.799805,2253.755859 
	C1327.046021,2253.755859 1366.831421,2253.755859 1407.686646,2253.755859 
	C1407.686646,2237.444092 1407.686646,2221.540527 1407.686646,2205.636719 
	C1407.686646,2189.973633 1407.686646,2174.310303 1407.686646,2158.647217 
	C1407.686646,2142.650879 1407.649658,2126.654297 1407.697021,2110.657959 
	C1407.743652,2094.935303 1407.480835,2079.199707 1407.908569,2062.087158 
	C1412.167480,2065.645752 1415.015259,2067.874268 1417.696167,2070.288086 
	C1448.824341,2098.315430 1479.900391,2126.400879 1511.043579,2154.411377 
	C1546.140503,2185.977783 1581.278809,2217.498291 1616.451172,2248.980713 
	C1618.638794,2250.938721 1621.197266,2253.686523 1623.727905,2253.851807 
	C1635.523682,2254.622070 1647.378052,2254.816406 1659.011719,2253.817627 
	C1659.011719,2114.575195 1659.011719,1976.445801 1659.011719,1838.389526 
	C1642.288940,1836.637085 1546.077148,1837.326904 1538.313477,1839.348389 
	C1538.313477,1865.112793 1538.313477,1891.056396 1538.313354,1919.000000 
M1885.000000,2105.684326 
	C1911.211182,2105.684326 1937.422363,2105.684326 1964.356445,2105.684326 
	C1964.161499,2065.610352 1964.671021,2026.834351 1964.004150,1987.154541 
	C1919.911011,1987.154541 1877.072021,1987.154541 1834.207764,1987.154541 
	C1834.207764,1976.352051 1834.207764,1966.479858 1834.207764,1955.431519 
	C1890.811646,1955.431519 1946.905396,1955.431519 2003.159668,1955.431519 
	C2003.159668,1915.723633 2003.159668,1877.208618 2003.159668,1838.313110 
	C1905.880615,1838.313110 1809.127319,1838.313110 1712.443481,1838.313110 
	C1710.341431,1858.128418 1711.238647,2248.088379 1713.306030,2255.051270 
	C1809.823975,2255.051270 1906.313965,2255.051270 2002.994873,2255.051270 
	C2002.994873,2215.969971 2002.994873,2177.525146 2002.994873,2138.315674 
	C1988.374634,2138.315674 1974.431274,2138.315674 1960.487915,2138.315674 
	C1946.489624,2138.315674 1932.491455,2138.315674 1918.493164,2138.315674 
	C1904.161621,2138.315674 1889.829712,2138.364014 1875.498413,2138.302002 
	C1861.668335,2138.242432 1847.818848,2138.579346 1834.402832,2138.098633 
	C1834.402832,2126.526611 1834.402832,2116.358887 1834.402832,2105.684082 
	C1851.077148,2105.684082 1867.038574,2105.684082 1885.000000,2105.684326 
M2139.704590,2047.318359 
	C2144.177002,2055.105957 2148.398193,2063.053223 2153.207520,2070.626953 
	C2156.569092,2075.921143 2157.786377,2081.337891 2157.766602,2087.567871 
	C2157.602539,2139.554932 2157.667236,2191.542969 2157.688232,2243.530518 
	C2157.689453,2247.030029 2157.898438,2250.529541 2158.000000,2253.696777 
	C2201.813232,2253.696777 2244.325928,2253.696777 2287.685059,2253.696777 
	C2287.685059,2249.483643 2287.685303,2245.885254 2287.685303,2242.286865 
	C2287.685303,2192.632080 2287.889893,2142.975586 2287.518555,2093.323486 
	C2287.440918,2082.975098 2288.816406,2073.750244 2295.031982,2065.182373 
	C2299.107422,2059.564697 2302.007080,2053.099121 2305.492432,2047.047241 
	C2344.000977,1980.179443 2382.525879,1913.321045 2421.017822,1846.443726 
	C2422.263672,1844.279297 2423.206055,1841.940186 2424.470947,1839.304565 
	C2422.729980,1838.834229 2421.847412,1838.388184 2420.964355,1838.387207 
	C2379.641113,1838.339844 2338.317383,1838.397949 2296.994873,1838.228516 
	C2292.123291,1838.208618 2290.092529,1840.710205 2287.907471,1844.430542 
	C2270.047363,1874.836670 2252.011719,1905.139893 2234.003662,1935.459106 
	C2230.387695,1941.547119 2226.662598,1947.570190 2222.429199,1954.543335 
	C2198.875244,1914.942627 2175.988037,1876.462769 2153.515381,1838.680054 
	C2110.491943,1836.762085 2027.990723,1837.685181 2020.624268,1840.196045 
	C2025.920044,1849.469116 2031.162964,1858.699219 2036.452148,1867.902832 
	C2070.590088,1927.305542 2104.738281,1986.702515 2139.704590,2047.318359 
z"/>
<path fill="#EEA436" opacity="1.000000" stroke="none" 
	d="
M1385.200073,2.000000 
	C1386.000000,11.566928 1386.000000,21.133856 1386.000000,31.034222 
	C1413.747437,32.675484 1440.132324,34.236149 1466.949829,35.822407 
	C1468.151123,26.331800 1469.266968,17.516752 1470.524780,7.580652 
	C1498.149780,9.080064 1524.637329,14.417275 1552.084351,19.932585 
	C1550.163696,29.942072 1548.381714,39.229069 1546.590088,48.566208 
	C1572.535156,55.390942 1597.850098,62.049870 1624.125732,68.961533 
	C1627.160522,59.952251 1630.090576,51.254288 1633.323853,41.656105 
	C1659.747925,49.471844 1685.082764,58.933350 1710.796509,70.490105 
	C1707.033569,79.505951 1703.494629,87.985489 1699.628296,97.249237 
	C1723.502441,109.043800 1747.179077,120.740715 1771.579346,132.795151 
	C1776.577271,124.260178 1781.383789,116.052269 1786.706543,106.962616 
	C1810.340210,121.681923 1833.153320,135.890182 1856.865234,150.658234 
	C1850.873047,159.442566 1845.515503,167.296616 1839.916138,175.505234 
	C1861.198120,191.941284 1882.145752,208.119171 1903.616455,224.701065 
	C1909.922485,217.487915 1916.016113,210.517593 1922.641357,202.939270 
	C1944.534180,219.875839 1962.983521,239.795837 1982.439331,259.050720 
	C1975.450073,266.019897 1968.914062,272.537231 1961.849487,279.581635 
	C1979.541016,299.976929 1996.869507,319.953735 2014.818359,340.645660 
	C2022.395874,334.893494 2029.944336,329.163452 2038.677002,322.534302 
	C2054.693115,345.094727 2070.236084,366.988647 2086.490967,389.885559 
	C2077.704346,395.690887 2069.563477,401.069519 2061.410889,406.455994 
	C2074.844482,430.102081 2087.798828,452.904022 2101.112061,476.337585 
	C2109.637451,472.138000 2117.933350,468.051483 2127.229736,463.472046 
	C2139.980225,487.848999 2150.526367,512.760925 2160.748779,538.922058 
	C2151.468506,542.736572 2142.709717,546.336853 2133.703857,550.038635 
	C2142.088867,575.703552 2150.210449,600.561829 2158.597900,626.234253 
	C2167.805420,623.894653 2176.702637,621.633850 2186.722168,619.087952 
	C2194.461914,645.701599 2199.970703,672.078613 2204.366211,699.585083 
	C2194.607666,701.458618 2185.593262,703.189270 2175.917236,705.046936 
	C2178.993408,731.431885 2182.018311,757.376831 2185.102783,783.833618 
	C2194.425537,783.833618 2203.611328,783.833618 2213.686768,783.833618 
	C2216.752686,810.801880 2216.604492,837.554565 2215.479492,865.516541 
	C2205.716309,865.516541 2196.310791,865.516541 2186.641846,865.516541 
	C2184.397461,892.689270 2182.247314,918.722717 2180.047363,945.358276 
	C2189.474854,946.771240 2198.259033,948.087830 2208.353027,949.600708 
	C2206.150879,977.073181 2200.065674,1003.345093 2194.173340,1030.730713 
	C2184.339844,1028.749512 2175.352539,1026.938843 2165.611816,1024.976318 
	C2158.203613,1050.526367 2150.937256,1075.587891 2143.350586,1101.754150 
	C2152.138916,1104.951660 2160.763916,1108.089722 2170.556885,1111.652710 
	C2162.177490,1137.999512 2151.853271,1163.226074 2140.059326,1188.377930 
	C2130.569824,1184.259399 2122.116455,1180.590454 2113.286865,1176.758423 
	C2100.860840,1200.623291 2088.774902,1223.834595 2076.319336,1247.756226 
	C2084.532227,1252.841187 2092.380859,1257.700439 2100.968262,1263.016968 
	C2087.480713,1287.186890 2072.121826,1309.475830 2055.965576,1332.065186 
	C2047.453979,1326.061279 2039.925781,1320.750977 2032.071045,1315.210571 
	C2015.106567,1336.131104 1998.607788,1356.477539 1981.451294,1377.635132 
	C1988.330322,1383.960693 1995.321411,1390.389160 2002.856812,1397.318115 
	C1984.599121,1418.441528 1965.854858,1438.058472 1944.709595,1456.077148 
	C1938.112183,1449.079712 1931.738892,1442.319946 1924.901855,1435.068359 
	C1904.378174,1452.046143 1884.209595,1468.730103 1863.108398,1486.185669 
	C1868.573975,1493.797974 1874.108154,1501.505615 1880.134033,1509.898071 
	C1858.561523,1526.707642 1835.885864,1541.577515 1811.733032,1556.293335 
	C1806.538574,1547.884766 1801.561646,1539.828369 1796.304688,1531.318604 
	C1772.661987,1544.089966 1749.632324,1556.530273 1725.517944,1569.556396 
	C1729.288940,1577.775879 1733.108887,1586.102051 1737.489868,1595.651245 
	C1713.137939,1608.406860 1687.936279,1618.029663 1661.509277,1627.662598 
	C1657.915527,1618.195312 1654.659790,1609.618408 1651.177246,1600.443848 
	C1625.579468,1608.153687 1600.274902,1615.775146 1574.255005,1623.612061 
	C1576.340454,1632.600220 1578.421997,1641.571899 1580.767822,1651.682495 
	C1554.306763,1659.104614 1527.722412,1663.641846 1499.924561,1667.878174 
	C1498.244263,1657.883301 1496.672852,1648.536011 1495.088257,1639.110840 
	C1468.533691,1641.653809 1442.493408,1644.147461 1415.810913,1646.702637 
	C1415.810913,1656.198975 1415.810913,1665.373413 1415.810913,1675.573486 
	C1388.347046,1676.844604 1361.562866,1676.572510 1334.218506,1675.387085 
	C1334.218506,1665.521606 1334.218506,1656.337769 1334.218506,1646.334961 
	C1307.777710,1643.533447 1281.790405,1640.780151 1254.824951,1637.923096 
	C1253.175659,1647.089111 1251.550781,1656.119141 1249.712646,1666.335327 
	C1222.505249,1662.639648 1196.118408,1657.185425 1168.880859,1649.934814 
	C1171.308350,1640.087280 1173.505859,1631.172607 1175.833862,1621.728882 
	C1150.234497,1613.728760 1125.006470,1605.844482 1098.988525,1597.713501 
	C1095.635132,1606.614380 1092.383545,1615.244751 1088.790161,1624.782715 
	C1062.538330,1615.749756 1037.822754,1604.827393 1012.766968,1592.473145 
	C1016.981873,1583.295410 1020.819580,1574.939087 1024.906128,1566.040894 
	C1001.556458,1553.157593 978.649353,1540.518555 954.766296,1527.341064 
	C949.613403,1535.353516 944.470947,1543.349731 938.567261,1552.529663 
	C915.882385,1536.923218 893.497559,1521.523193 870.447510,1505.665649 
	C876.812988,1497.116455 882.332642,1489.703247 888.325012,1481.655273 
	C867.976562,1464.388916 847.821594,1447.286865 827.501282,1430.044312 
	C820.653137,1436.882202 813.904724,1443.620361 806.211548,1451.301880 
	C786.817627,1431.244263 767.948669,1411.729736 748.648438,1391.769043 
	C756.691467,1384.629272 763.617798,1378.480957 771.029297,1371.901733 
	C754.393311,1350.920776 738.146423,1330.430542 721.157959,1309.005127 
	C713.399109,1314.220337 705.549133,1319.496826 697.031738,1325.221924 
	C680.722229,1303.101807 666.264221,1280.507812 652.532593,1256.145142 
	C661.003845,1250.986328 669.130676,1246.037231 677.438171,1240.978149 
	C665.356384,1217.304810 653.445068,1193.965332 641.024719,1169.628418 
	C632.677490,1173.151245 624.232910,1176.715210 614.565552,1180.795166 
	C602.343872,1156.325439 593.316040,1130.890625 584.333618,1104.225952 
	C593.840454,1100.730713 602.701050,1097.473267 611.685791,1094.170044 
	C604.585327,1068.596191 597.668640,1043.684326 590.352722,1017.334656 
	C581.600830,1019.000488 572.638916,1020.706299 562.278320,1022.678345 
	C554.885193,996.161316 551.555542,969.124512 547.590271,941.544312 
	C557.572449,940.157593 566.406494,938.930359 576.404358,937.541504 
	C574.602356,911.195190 572.822327,885.169617 570.986450,858.328247 
	C561.833557,858.328247 552.668762,858.328247 542.256470,858.328247 
	C541.118164,830.492798 541.440857,803.507202 544.244568,776.039246 
	C553.902710,776.039246 563.097473,776.039246 573.031067,776.039246 
	C576.346436,750.198486 579.671265,724.284058 583.132568,697.306030 
	C573.899231,695.477112 564.611267,693.637329 554.649353,691.664062 
	C559.011047,664.300964 565.474915,638.047913 573.019165,611.188538 
	C582.647522,613.753662 591.556335,616.127014 601.070251,618.661621 
	C609.672791,593.301025 618.077820,568.522644 626.812195,542.773315 
	C617.948120,538.999939 609.207031,535.278870 599.876282,531.306824 
	C610.260376,505.665100 620.799500,480.745880 634.219482,456.362366 
	C643.435791,460.919708 651.686829,464.999786 660.184937,469.202026 
	C673.797363,445.770416 686.944092,423.140320 700.525635,399.761810 
	C692.725952,394.543640 685.068604,389.420654 676.594360,383.751160 
	C690.920105,359.969940 707.124817,338.332550 724.616089,316.601135 
	C732.542969,322.728638 739.846985,328.374634 747.702698,334.447144 
	C765.432739,314.451416 782.969971,294.673187 800.933655,274.413971 
	C794.071655,267.353424 787.413330,260.502380 779.875427,252.746323 
	C800.280212,233.957947 820.026917,215.775558 840.376526,197.037949 
	C847.399353,204.983215 853.700745,212.112350 860.202942,219.468674 
	C881.682190,203.194687 902.547363,187.386002 923.964050,171.159424 
	C918.706787,163.009293 913.701172,155.249283 908.281738,146.847672 
	C930.632935,130.542862 954.210999,117.137604 978.536804,103.485222 
	C983.420532,112.208000 987.929810,120.261955 992.851868,129.053101 
	C1016.865417,117.477829 1040.407349,106.129906 1065.097168,94.228661 
	C1061.609375,85.422287 1058.118164,76.607368 1054.114624,66.498642 
	C1079.685547,57.148361 1104.859131,47.943367 1131.429321,38.227707 
	C1134.883057,48.336494 1137.924072,57.237118 1141.119873,66.591118 
	C1167.028687,60.026436 1192.379150,53.603222 1218.589722,46.962093 
	C1216.942505,37.581623 1215.353394,28.531677 1213.607788,18.590761 
	C1240.535522,12.372663 1267.365967,9.136940 1295.012817,6.089048 
	C1296.300415,16.188189 1297.501709,25.610369 1298.705933,35.054951 
	C1325.200317,33.728996 1351.036499,32.435986 1377.604004,31.106377 
	C1379.869507,22.184841 1378.370117,12.940248 1378.282959,2.900246 
	C1380.133423,2.000000 1382.266724,2.000000 1385.200073,2.000000 
M1534.282837,783.000000 
	C1534.119507,627.713745 1533.956299,472.427490 1533.775024,317.141266 
	C1533.774658,316.840027 1533.563965,316.485443 1533.346802,316.254028 
	C1533.150269,316.044617 1532.810425,315.969849 1531.114380,315.147583 
	C1419.626343,347.964783 1307.017822,381.111847 1194.458252,414.244476 
	C1194.458252,501.703583 1194.458252,588.426514 1194.458252,675.952942 
	C1227.688721,665.851196 1260.023682,656.021729 1293.716064,645.779602 
	C1293.716064,896.388733 1293.716064,1145.505127 1293.716064,1395.150879 
	C1374.225586,1395.150879 1453.689087,1395.150879 1534.283081,1395.150879 
	C1534.283081,1191.396606 1534.283081,988.198303 1534.282837,783.000000 
z"/>
<path fill="#EEA437" opacity="1.000000" stroke="none" 
	d="
M747.998413,2373.707520 
	C760.278625,2373.707275 771.559387,2373.707275 783.480835,2373.707275 
	C783.969055,2378.517334 784.390076,2382.665771 784.884216,2387.533447 
	C812.469177,2387.533447 839.873962,2387.533447 867.795044,2387.533447 
	C868.087524,2383.289795 868.356323,2379.389404 868.709534,2374.264648 
	C895.867004,2372.966797 922.997803,2374.129395 950.880310,2373.627686 
	C951.372253,2378.373779 951.805359,2382.552490 952.239258,2386.732910 
	C959.312378,2388.662842 1015.135803,2389.312744 1033.530762,2387.589355 
	C1033.936768,2383.639160 1034.363281,2379.490479 1034.783447,2375.402344 
	C1041.869995,2373.312500 1104.681763,2372.806641 1117.815430,2374.808105 
	C1118.104614,2378.796143 1118.406494,2382.959717 1118.748047,2387.670898 
	C1146.420898,2387.670898 1173.528198,2387.670898 1201.251099,2387.670898 
	C1201.585327,2383.015625 1201.884399,2378.850586 1202.213745,2374.264160 
	C1229.639771,2374.264160 1256.446655,2374.264160 1283.779541,2374.264160 
	C1284.088989,2378.671875 1284.362427,2382.569824 1284.632324,2386.414551 
	C1291.496460,2388.710449 1351.601074,2389.421143 1367.669556,2387.336426 
	C1368.038452,2383.370850 1368.426270,2379.200684 1368.872925,2374.397949 
	C1396.266846,2374.397949 1423.374878,2374.397949 1451.066162,2374.397949 
	C1451.480835,2378.805908 1451.872803,2382.971924 1452.316528,2387.687500 
	C1479.468506,2387.687500 1506.274902,2387.687500 1533.771851,2387.687500 
	C1534.097656,2383.226318 1534.402832,2379.047363 1534.747559,2374.328613 
	C1562.445435,2374.328613 1589.607910,2374.328613 1617.544067,2374.328613 
	C1617.958740,2378.464111 1618.374634,2382.611084 1618.781860,2386.672119 
	C1626.011841,2388.614014 1687.542725,2389.151123 1701.049438,2387.350586 
	C1701.433960,2383.350342 1701.834839,2379.179932 1702.297119,2374.371582 
	C1729.294800,2374.371582 1756.102661,2374.371582 1783.600220,2374.371582 
	C1784.015625,2378.590820 1784.425903,2382.757568 1784.900269,2387.575684 
	C1812.284546,2387.575684 1839.441895,2387.575684 1867.507935,2387.575684 
	C1867.924072,2383.691162 1868.367676,2379.550293 1868.808472,2375.434814 
	C1875.680542,2373.320312 1933.442383,2372.582031 1950.991211,2374.463135 
	C1951.387695,2378.464355 1951.801636,2382.641357 1952.287354,2387.543945 
	C1979.123413,2387.543945 2005.931763,2387.543945 2033.550171,2387.543945 
	C2033.950562,2383.549561 2034.366089,2379.403076 2034.773438,2375.338623 
	C2042.146606,2373.312988 2106.117188,2372.921875 2117.807617,2374.877197 
	C2118.080322,2378.617188 2118.364746,2382.513672 2118.646973,2386.382324 
	C2125.457031,2388.747803 2178.565186,2389.610352 2201.035645,2387.638184 
	C2201.401855,2383.673340 2201.786377,2379.510010 2202.170898,2375.347168 
	C2209.257324,2373.268066 2273.088379,2372.916992 2283.849609,2374.993896 
	C2284.101318,2378.757568 2284.362305,2382.658691 2284.617676,2386.473877 
	C2291.644287,2388.678955 2353.351318,2389.288330 2367.817139,2387.245117 
	C2368.102295,2383.272217 2368.401123,2379.112061 2368.742676,2374.355469 
	C2396.346436,2374.355469 2423.454102,2374.355469 2451.151611,2374.355469 
	C2451.520508,2378.894043 2451.858887,2383.058350 2452.238037,2387.724609 
	C2479.557129,2387.724609 2506.363525,2387.724609 2533.782715,2387.724609 
	C2534.114746,2383.132812 2534.416016,2378.967529 2534.754639,2374.286621 
	C2562.527344,2374.286621 2589.692627,2374.286621 2617.547119,2374.286621 
	C2617.981201,2378.549316 2618.403809,2382.698730 2618.897705,2387.549316 
	C2646.192627,2387.549316 2673.301025,2387.549316 2701.011963,2387.549316 
	C2701.450195,2383.264160 2701.876465,2379.097656 2702.363525,2374.334717 
	C2714.710449,2374.334717 2726.849121,2374.334717 2739.640625,2374.334717 
	C2739.640625,2389.118896 2739.640625,2403.629395 2739.640625,2418.945068 
	C2735.586914,2419.369629 2731.409668,2419.807373 2727.242676,2420.243896 
	C2725.356934,2427.341064 2724.738525,2484.274170 2726.444092,2501.543945 
	C2730.400879,2501.942139 2734.545654,2502.359375 2738.623047,2502.769775 
	C2740.678955,2509.988525 2741.135986,2573.235352 2739.161621,2585.821777 
	C2735.167480,2586.112793 2731.002686,2586.416504 2726.323730,2586.757324 
	C2726.323730,2614.459717 2726.323730,2641.564941 2726.323730,2669.242676 
	C2730.786377,2669.529785 2734.700195,2669.781494 2740.049805,2670.125488 
	C2740.536865,2697.207275 2740.172363,2724.252197 2740.305664,2751.752197 
	C2735.281494,2752.098633 2731.382324,2752.367432 2726.187256,2752.725830 
	C2725.125488,2780.187256 2726.049316,2807.592529 2725.653076,2835.712402 
	C2730.693604,2836.091309 2734.851074,2836.403809 2739.624268,2836.762695 
	C2739.624268,2848.327881 2739.624268,2859.455322 2739.624268,2871.482422 
	C2712.204590,2871.482422 2685.009033,2871.482422 2657.125000,2871.482422 
	C2656.624023,2876.457764 2656.203369,2880.634766 2655.708740,2885.548340 
	C2628.277588,2885.548340 2600.855713,2885.548340 2572.830566,2885.548340 
	C2572.474609,2881.098145 2572.141357,2876.934082 2571.768311,2872.272217 
	C2544.435059,2872.272217 2517.628418,2872.272217 2490.218262,2872.272217 
	C2489.883789,2876.874512 2489.581055,2881.039795 2489.244141,2885.678467 
	C2461.517334,2885.678467 2434.409912,2885.678467 2406.745605,2885.678467 
	C2406.458008,2881.202637 2406.206299,2877.287598 2405.958252,2873.424072 
	C2399.035645,2871.348633 2336.122803,2870.787598 2322.958496,2872.738770 
	C2322.548340,2876.743896 2322.121582,2880.910400 2321.634277,2885.668945 
	C2294.607666,2885.668945 2267.800537,2885.668945 2240.211182,2885.668945 
	C2239.894531,2881.303955 2239.592773,2877.145752 2239.246826,2872.377930 
	C2211.671387,2872.377930 2184.563965,2872.377930 2156.868408,2872.377930 
	C2156.493652,2876.887451 2156.147705,2881.052002 2155.759033,2885.728760 
	C2128.092529,2885.728760 2100.911133,2885.728760 2072.977783,2885.728760 
	C2072.576904,2881.437500 2072.187500,2877.264404 2071.734619,2872.416016 
	C2044.781128,2872.416016 2017.973022,2872.416016 1990.451050,2872.416016 
	C1990.030884,2876.534668 1989.606323,2880.696045 1989.110840,2885.552979 
	C1961.824951,2885.552979 1934.715942,2885.552979 1906.980835,2885.552979 
	C1906.549927,2881.296387 1906.128052,2877.128662 1905.644897,2872.355469 
	C1878.257446,2872.355469 1851.068359,2872.355469 1823.064331,2872.355469 
	C1822.638672,2876.401611 1822.199219,2880.579102 1821.753418,2884.757568 
	C1814.599121,2886.688232 1758.612915,2887.324463 1740.459229,2885.589600 
	C1740.055664,2881.635986 1739.632812,2877.492432 1739.215576,2873.405029 
	C1732.212646,2871.361328 1672.717896,2870.697754 1656.962646,2872.548584 
	C1656.588135,2876.548584 1656.197510,2880.722168 1655.742188,2885.585449 
	C1628.192017,2885.585449 1600.773926,2885.585449 1572.736450,2885.585449 
	C1572.407471,2881.016357 1572.107544,2876.851318 1571.778687,2872.282715 
	C1544.346436,2872.282715 1517.540039,2872.282715 1490.221191,2872.282715 
	C1489.913940,2876.698242 1489.642822,2880.596680 1489.375854,2884.433838 
	C1482.422241,2886.737793 1427.885254,2887.563232 1407.022705,2885.634766 
	C1406.618652,2881.636963 1406.196533,2877.459229 1405.773682,2873.279053 
	C1398.767090,2871.347900 1334.647461,2870.923340 1322.873291,2872.833740 
	C1322.514038,2876.830322 1322.138916,2881.004395 1321.716187,2885.706055 
	C1294.518066,2885.706055 1267.711304,2885.706055 1240.222900,2885.706055 
	C1239.896362,2881.218018 1239.593384,2877.054932 1239.250000,2872.335938 
	C1211.592041,2872.335938 1184.484863,2872.335938 1156.758423,2872.335938 
	C1156.422974,2876.970703 1156.121582,2881.135986 1155.786499,2885.766113 
	C1128.007080,2885.766113 1100.829468,2885.766113 1072.986938,2885.766113 
	C1072.559448,2881.351074 1072.155640,2877.180908 1071.690796,2872.378906 
	C1044.691406,2872.378906 1017.884033,2872.378906 990.378662,2872.378906 
	C989.972473,2876.627441 989.575439,2880.780762 989.115173,2885.595459 
	C961.745422,2885.595459 934.637207,2885.595459 906.950500,2885.595459 
	C906.525391,2881.208008 906.121704,2877.041992 905.664001,2872.318359 
	C878.171753,2872.318359 850.987122,2872.318359 823.013000,2872.318359 
	C822.608459,2876.491211 822.203491,2880.668213 821.728943,2885.562500 
	C794.864258,2885.562500 768.055054,2885.562500 740.445129,2885.562500 
	C740.043457,2881.549805 739.628357,2877.403320 739.085571,2871.980957 
	C711.903259,2871.413086 684.789612,2871.880615 657.038147,2871.698730 
	C656.568359,2876.635010 656.171387,2880.805908 655.713013,2885.622070 
	C628.347229,2885.622070 601.162109,2885.622070 572.960754,2885.622070 
	C572.594116,2881.677246 572.207153,2877.513672 571.819702,2873.344971 
	C564.767273,2871.298828 511.210052,2870.586426 490.505280,2872.347168 
	C490.078735,2876.294678 489.631409,2880.434570 489.186005,2884.556641 
	C482.338409,2886.686279 424.983917,2887.438721 407.022644,2885.552490 
	C406.619141,2881.550293 406.198029,2877.373047 405.702942,2872.462158 
	C378.272430,2872.462158 350.850922,2872.462158 322.818878,2872.462158 
	C322.469940,2876.917480 322.143005,2881.092285 321.778809,2885.742676 
	C294.430267,2885.742676 267.623413,2885.742676 240.212204,2885.742676 
	C239.877899,2881.134033 239.575760,2876.968750 239.239761,2872.336670 
	C211.513657,2872.336670 184.406357,2872.336670 156.748260,2872.336670 
	C156.461151,2876.815674 156.210144,2880.731201 155.869293,2886.048340 
	C128.415405,2886.557617 100.996338,2886.172852 73.060555,2886.307617 
	C72.543625,2881.264893 72.116493,2877.098145 71.594238,2872.003418 
	C58.912304,2872.003418 46.389748,2872.003418 33.173218,2872.003418 
	C32.605873,2867.030029 32.136280,2862.913818 31.595703,2858.175049 
	C27.188904,2857.880859 23.002787,2857.601562 18.306839,2857.288086 
	C18.306839,2829.560059 18.306839,2802.450684 18.306839,2774.756836 
	C22.744595,2774.463379 26.656176,2774.204590 30.521694,2773.948730 
	C32.655766,2767.163818 33.285500,2704.923584 31.300093,2690.966553 
	C27.297096,2690.562500 23.128937,2690.141846 18.351871,2689.659668 
	C18.351871,2662.649414 18.351871,2635.841309 18.351871,2608.312012 
	C22.655956,2607.932373 26.811260,2607.565674 31.603415,2607.143066 
	C31.603415,2579.702148 31.603415,2552.596436 31.603415,2524.889648 
	C27.143459,2524.507080 22.978186,2524.149902 18.287598,2523.747559 
	C18.287598,2496.121826 18.287598,2468.938477 18.287598,2440.982910 
	C22.532143,2440.584229 26.705950,2440.191895 31.681307,2439.724365 
	C31.883659,2436.786621 32.196281,2433.906494 32.262299,2431.020264 
	C32.686344,2412.482910 33.056351,2393.944336 33.467945,2374.266602 
	C62.200867,2373.079346 89.614563,2374.050049 117.748375,2373.647705 
	C118.107635,2378.697510 118.404793,2382.874268 118.743019,2387.628418 
	C146.341080,2387.628418 173.448502,2387.628418 201.146957,2387.628418 
	C201.514938,2383.099121 201.853256,2378.934814 202.232620,2374.265381 
	C229.550552,2374.265381 256.357361,2374.265381 283.785065,2374.265381 
	C284.114502,2378.848145 284.413910,2383.013184 284.750580,2387.697021 
	C312.521240,2387.697021 339.685760,2387.697021 367.541382,2387.697021 
	C367.975128,2383.444580 368.398376,2379.295166 368.893524,2374.440918 
	C396.186676,2374.440918 423.295532,2374.440918 451.016418,2374.440918 
	C451.451691,2378.709229 451.877655,2382.886230 452.363434,2387.649902 
	C479.378021,2387.649902 506.184937,2387.649902 533.768005,2387.649902 
	C534.093933,2383.304688 534.405823,2379.146973 534.763977,2374.371582 
	C562.361694,2374.371582 589.521729,2374.371582 617.540710,2374.371582 
	C617.946777,2378.377686 618.366882,2382.521729 618.780762,2386.604248 
	C625.810059,2388.633545 685.614502,2389.281494 701.042175,2387.437988 
	C701.415100,2383.443359 701.805115,2379.265137 702.323914,2373.707520 
	C717.245056,2373.707520 732.122070,2373.707520 747.998413,2373.707520 
M2531.264404,2594.380859 
	C2529.929932,2596.293945 2528.516846,2598.157227 2527.273438,2600.127686 
	C2510.526367,2626.659424 2512.600830,2665.110596 2531.850098,2689.407471 
	C2547.917236,2709.687744 2578.945801,2716.182617 2599.815674,2693.305664 
	C2601.262451,2691.719482 2602.944824,2690.348389 2605.581543,2687.882324 
	C2606.374756,2701.471436 2606.717773,2713.321289 2599.735596,2723.926025 
	C2592.260254,2735.280762 2579.466797,2737.605957 2568.517090,2729.517822 
	C2565.336670,2727.169189 2562.865479,2723.881836 2559.853027,2721.274902 
	C2558.192139,2719.837891 2556.106689,2717.972168 2554.170898,2717.922119 
	C2542.245605,2717.613281 2530.308838,2717.767090 2518.323486,2717.767090 
	C2519.782715,2736.185547 2532.599854,2751.896484 2550.816406,2757.749268 
	C2567.392090,2763.074951 2584.284180,2763.126953 2601.130859,2759.114990 
	C2627.229736,2752.900391 2641.541016,2735.079590 2641.679932,2708.153320 
	C2641.889648,2667.489502 2641.751465,2626.824219 2641.695801,2586.159424 
	C2641.692383,2583.657227 2641.117920,2581.155518 2640.771240,2578.345947 
	C2628.781250,2578.357178 2617.637451,2577.979736 2606.520996,2578.535156 
	C2606.072266,2584.327393 2605.733398,2588.703125 2605.322998,2593.998779 
	C2600.221191,2589.519287 2596.454834,2585.725098 2592.210449,2582.575684 
	C2578.924561,2572.717041 2564.458740,2571.241699 2549.972656,2579.062500 
	C2543.396484,2582.612793 2538.055420,2588.450928 2531.264404,2594.380859 
M165.495544,2619.461670 
	C152.646500,2583.148193 139.797455,2546.834717 126.860123,2510.271729 
	C119.667732,2510.271729 113.367050,2510.271729 107.066368,2510.271729 
	C100.865158,2510.271729 94.663948,2510.271729 86.694267,2510.271729 
	C110.071548,2577.144287 132.854401,2642.316650 155.720535,2707.727051 
	C165.309174,2707.727051 173.946548,2707.754150 182.583572,2707.708984 
	C184.875732,2707.697021 187.166718,2707.463135 190.419281,2707.276123 
	C213.213440,2642.175293 236.026825,2577.019531 259.194519,2510.851807 
	C244.666962,2510.851807 231.868271,2510.851807 218.856476,2510.851807 
	C203.786346,2553.468262 188.873428,2595.640381 173.960510,2637.812256 
	C173.344742,2637.765137 172.728973,2637.718018 172.113205,2637.670898 
	C170.062088,2632.099365 168.010971,2626.528076 165.495544,2619.461670 
M2146.294922,2527.052246 
	C2146.294922,2520.483154 2146.294922,2513.913818 2146.294922,2506.960938 
	C2133.709229,2506.960938 2122.279785,2506.960938 2110.698730,2506.960938 
	C2110.698730,2574.047852 2110.698730,2640.450195 2110.698730,2707.576416 
	C2122.857666,2707.703613 2134.291748,2708.041260 2146.296631,2707.338867 
	C2146.296631,2687.157959 2145.916016,2668.183594 2146.468506,2649.236572 
	C2146.717773,2640.685547 2148.253662,2632.050781 2150.262451,2623.708740 
	C2152.031006,2616.364990 2157.437500,2611.688232 2165.165283,2610.785889 
	C2172.988037,2609.873047 2179.349365,2613.556885 2182.373047,2620.288818 
	C2185.282715,2626.766602 2187.336914,2634.138916 2187.597656,2641.198242 
	C2188.298096,2660.157959 2187.812500,2679.160400 2187.866699,2698.145996 
	C2187.874756,2701.033936 2188.248291,2703.920654 2188.513672,2707.670654 
	C2200.581787,2707.608887 2212.008301,2708.026367 2223.489258,2707.451904 
	C2223.734375,2704.500977 2223.988770,2702.858398 2223.989258,2701.215820 
	C2223.995361,2676.901367 2224.117920,2652.585205 2223.844727,2628.273682 
	C2223.774414,2622.000732 2222.941895,2615.629883 2221.583252,2609.498047 
	C2217.509277,2591.112305 2205.608887,2578.924805 2189.553223,2576.619141 
	C2177.059570,2574.824707 2165.835205,2578.282471 2155.865479,2585.990723 
	C2153.175537,2588.070557 2150.329346,2589.948730 2146.295166,2592.814697 
	C2146.295166,2570.240234 2146.295166,2549.640137 2146.294922,2527.052246 
M399.738739,2601.048828 
	C399.738739,2593.814941 399.738739,2586.581055 399.738739,2579.592285 
	C388.500031,2577.582275 371.537201,2577.833252 364.281586,2579.945068 
	C363.943451,2584.269287 363.599548,2588.667236 363.255646,2593.065186 
	C362.505310,2593.437744 361.754944,2593.810303 361.004608,2594.182617 
	C359.463287,2592.023682 358.197021,2589.586426 356.337738,2587.749268 
	C338.577118,2570.200684 317.323517,2569.450928 298.390869,2585.921143 
	C283.816772,2598.599365 276.581024,2615.212402 275.002625,2634.110107 
	C273.038116,2657.631104 278.539276,2678.911865 295.257355,2696.669678 
	C310.329376,2712.679443 339.365417,2716.019531 356.064636,2695.313477 
	C357.995453,2692.919434 360.301147,2690.827393 364.144592,2686.803467 
	C364.144592,2695.209229 364.144592,2701.015381 364.144592,2707.180664 
	C376.271515,2707.180664 387.420105,2707.180664 399.738495,2707.180664 
	C399.738495,2672.104736 399.738495,2637.568115 399.738739,2601.048828 
M2434.556152,2616.535156 
	C2438.870117,2622.447510 2440.178223,2629.148438 2440.143799,2636.343506 
	C2440.045410,2657.006104 2440.088623,2677.669434 2440.145996,2698.332520 
	C2440.154053,2701.206543 2440.556396,2704.079346 2440.782715,2707.040039 
	C2453.028076,2707.040039 2464.476074,2707.040039 2476.240234,2707.040039 
	C2476.551758,2704.789795 2476.966797,2703.175293 2476.969482,2701.560303 
	C2477.010010,2677.897949 2477.439209,2654.222900 2476.776367,2630.579102 
	C2476.509766,2621.067383 2475.100830,2611.178223 2471.992676,2602.231934 
	C2462.451172,2574.766113 2437.250244,2566.484131 2412.601562,2581.928955 
	C2410.071533,2583.513916 2407.828369,2585.549561 2405.356689,2587.236572 
	C2403.801025,2588.298584 2402.067627,2589.100586 2399.993164,2590.252686 
	C2399.246338,2586.069336 2398.620605,2582.563721 2397.937988,2578.739746 
	C2386.335938,2578.739746 2375.156738,2578.739746 2363.326660,2578.739746 
	C2363.326660,2621.669434 2363.326660,2664.124023 2363.326660,2706.995850 
	C2375.208984,2706.995850 2386.592773,2706.995850 2399.023193,2706.995850 
	C2399.023193,2702.673096 2399.003418,2699.064209 2399.026367,2695.455811 
	C2399.146729,2676.462646 2398.856445,2657.451904 2399.639893,2638.485840 
	C2399.904541,2632.080322 2401.836182,2625.218506 2404.864014,2619.559326 
	C2411.562012,2607.040527 2422.714844,2605.753662 2434.556152,2616.535156 
M1926.729370,2719.804199 
	C1936.133545,2696.319580 1945.677856,2672.890137 1954.902100,2649.335205 
	C1964.034302,2626.015625 1974.160278,2603.056152 1982.601807,2578.574219 
	C1969.713989,2578.574219 1958.439209,2578.574219 1946.347412,2578.574219 
	C1941.483398,2590.510742 1936.729614,2602.544922 1931.684082,2614.455566 
	C1926.616943,2626.416992 1922.438477,2638.809326 1915.598999,2652.130859 
	C1903.647461,2626.165039 1892.678345,2602.333496 1881.601074,2578.267334 
	C1875.052002,2578.267334 1869.074219,2578.231201 1863.096924,2578.277344 
	C1856.982300,2578.324463 1850.868164,2578.452148 1843.786865,2578.559326 
	C1845.725586,2583.312256 1846.971313,2586.704102 1848.467407,2589.981689 
	C1863.811768,2623.598633 1879.066284,2657.258545 1894.704590,2690.738770 
	C1897.184937,2696.049072 1897.531128,2700.496826 1895.164429,2705.764404 
	C1891.483643,2713.956787 1888.297974,2722.373047 1884.948730,2730.713135 
	C1880.636475,2741.451172 1876.369873,2752.207764 1871.751343,2763.789551 
	C1884.769287,2763.789551 1896.616211,2763.789551 1909.071289,2763.789551 
	C1914.782227,2749.559326 1920.465820,2735.397705 1926.729370,2719.804199 
M1629.364014,2651.732178 
	C1654.576416,2651.732178 1679.788940,2651.732178 1704.784546,2651.732178 
	C1707.556396,2634.843994 1702.970947,2614.779541 1693.717041,2601.235352 
	C1667.835938,2563.355225 1615.296265,2565.415283 1593.220581,2605.706543 
	C1579.377441,2630.972656 1580.789429,2657.092285 1593.970093,2682.229004 
	C1601.794922,2697.152100 1614.914185,2706.470947 1631.631836,2709.196045 
	C1640.069824,2710.571045 1649.012451,2710.775391 1657.481201,2709.654541 
	C1678.013672,2706.936768 1692.592163,2695.423340 1702.657471,2676.042480 
	C1691.328003,2672.019287 1680.829956,2668.291016 1670.867676,2664.753174 
	C1656.167603,2679.710938 1646.642090,2683.307129 1636.265625,2678.416992 
	C1626.559814,2673.842773 1621.050903,2663.402588 1622.649902,2652.153076 
	C1624.198120,2652.019531 1625.828979,2651.879150 1629.364014,2651.732178 
M808.537903,2614.734375 
	C807.326965,2611.997559 806.341553,2609.132812 804.869446,2606.544434 
	C793.719177,2586.941650 777.611877,2574.756104 754.376282,2574.343506 
	C730.457642,2573.918945 712.546692,2585.067383 701.299072,2605.622314 
	C687.449524,2630.932373 688.799500,2657.009277 701.939392,2682.171143 
	C709.743530,2697.115723 722.866089,2706.452393 739.595032,2709.186523 
	C748.036987,2710.566162 756.984436,2710.774902 765.458252,2709.656494 
	C786.002441,2706.944824 800.592041,2695.434082 810.652039,2676.037109 
	C799.316223,2672.014648 788.813904,2668.287842 778.372742,2664.582764 
	C769.086914,2676.357666 758.946167,2684.169434 744.265137,2678.277832 
	C734.286743,2674.273193 728.980530,2663.254883 730.826904,2651.436523 
	C758.156006,2651.436523 785.667114,2651.436523 813.002136,2651.436523 
	C814.750916,2638.636475 813.954041,2631.769531 808.537903,2614.734375 
M1391.526367,2611.806641 
	C1390.315186,2609.433350 1389.255615,2606.967041 1387.868896,2604.701172 
	C1376.073608,2585.426514 1359.520630,2573.948486 1336.277344,2574.329102 
	C1313.203125,2574.707031 1296.011108,2585.859375 1285.242432,2605.709473 
	C1271.493652,2631.053223 1272.785522,2657.118164 1285.991577,2682.265869 
	C1293.831665,2697.195801 1306.974487,2706.499512 1323.702148,2709.213135 
	C1332.146484,2710.583008 1341.100220,2710.790771 1349.568481,2709.642578 
	C1370.059082,2706.864746 1384.687744,2695.451904 1394.565918,2676.003418 
	C1383.229248,2671.990723 1372.729736,2668.274414 1362.284302,2664.577393 
	C1353.301025,2676.235596 1343.375366,2683.690918 1329.056274,2678.657227 
	C1319.358887,2675.248291 1313.852051,2665.053955 1313.999512,2651.638672 
	C1341.725464,2651.638672 1369.504028,2651.638672 1397.359009,2651.638672 
	C1399.093750,2637.457031 1396.622803,2625.212646 1391.526367,2611.806641 
M1130.953125,2707.730225 
	C1136.441772,2707.583008 1141.930420,2707.435791 1147.662354,2707.281982 
	C1147.662354,2677.960693 1148.159546,2649.967041 1147.458740,2622.003418 
	C1147.092163,2607.375000 1142.042969,2593.928467 1130.937866,2583.480469 
	C1122.556763,2575.595215 1112.632202,2572.914307 1101.432251,2574.806152 
	C1091.624512,2576.462158 1083.314941,2581.221191 1075.814819,2587.594482 
	C1074.276733,2588.901611 1072.452637,2589.871826 1070.275024,2591.320312 
	C1069.922485,2586.640137 1069.650879,2583.035156 1069.347778,2579.011719 
	C1057.570435,2579.011719 1046.145752,2579.011719 1034.818848,2579.011719 
	C1032.861938,2595.342041 1033.610718,2700.203369 1035.619385,2706.997803 
	C1046.803955,2706.997803 1057.953979,2706.997803 1069.877319,2706.997803 
	C1069.877319,2702.999512 1069.870850,2699.716309 1069.878296,2696.433105 
	C1069.920654,2677.767334 1069.407959,2659.074951 1070.288208,2640.448730 
	C1070.636475,2633.081055 1073.403442,2625.572021 1076.320435,2618.655029 
	C1079.093506,2612.080078 1085.214233,2608.514404 1092.439819,2608.795166 
	C1100.232788,2609.097656 1105.586182,2614.030273 1107.980835,2621.038086 
	C1109.988525,2626.913574 1111.218140,2633.319336 1111.352661,2639.521484 
	C1111.771851,2658.845215 1111.479248,2678.184082 1111.536499,2697.517090 
	C1111.545898,2700.693115 1111.927612,2703.868164 1112.182617,2707.729980 
	C1118.441772,2707.729980 1123.726685,2707.729980 1130.953125,2707.730225 
M539.759338,2578.346924 
	C534.031128,2579.356201 536.099915,2583.951172 536.074707,2587.135742 
	C535.903564,2608.770264 535.847534,2630.408447 536.022827,2652.042969 
	C536.281799,2683.999756 555.434082,2705.917236 586.952271,2709.372070 
	C626.619080,2713.720459 655.483398,2685.417236 654.159424,2650.745850 
	C653.359863,2629.805908 654.038208,2608.810791 653.988831,2587.840332 
	C653.981995,2584.954590 653.607361,2582.069824 653.390564,2579.009521 
	C641.258972,2579.009521 629.828979,2579.009521 617.703491,2579.009521 
	C617.703491,2583.035889 617.703674,2586.328613 617.703491,2589.621582 
	C617.702759,2605.599121 618.087402,2621.590088 617.520447,2637.547607 
	C617.277466,2644.385498 616.054626,2651.562256 613.481201,2657.850342 
	C610.174194,2665.930908 603.511902,2671.463379 594.175293,2671.281982 
	C585.216736,2671.108154 579.081970,2665.544678 576.209961,2657.608643 
	C573.883362,2651.179443 572.567505,2644.095459 572.345520,2637.251709 
	C571.806335,2620.625977 572.199341,2603.970703 572.128784,2587.328125 
	C572.116760,2584.491943 571.669189,2581.657715 571.376038,2578.284912 
	C560.851929,2578.284912 551.236511,2578.284912 539.759338,2578.346924 
M1510.616821,2693.753418 
	C1526.938110,2655.629150 1543.259399,2617.504883 1559.872437,2578.699219 
	C1546.478027,2578.699219 1534.576904,2578.699219 1522.227905,2578.699219 
	C1511.629272,2603.140381 1501.111938,2627.394043 1489.722168,2653.659912 
	C1478.208618,2627.104004 1467.682861,2602.826416 1457.250610,2578.764648 
	C1444.530640,2578.764648 1432.685913,2578.764648 1419.299438,2578.764648 
	C1438.061523,2622.355713 1456.401855,2664.966797 1474.603882,2707.256592 
	C1485.265137,2707.256592 1494.833374,2707.256592 1504.623657,2707.256592 
	C1506.518311,2703.026611 1508.274902,2699.105225 1510.616821,2693.753418 
M2018.976196,2631.096191 
	C2018.976196,2656.306885 2018.976196,2681.517822 2018.976196,2707.517578 
	C2031.733398,2707.818359 2043.126709,2707.892578 2055.327148,2707.507080 
	C2055.327148,2695.944580 2055.326904,2685.676514 2055.326904,2675.408691 
	C2055.326904,2665.422607 2055.197998,2655.434326 2055.363281,2645.450928 
	C2055.531006,2635.306396 2054.622559,2625.088379 2055.974121,2614.806641 
	C2061.854736,2614.387207 2066.670654,2614.043457 2071.589844,2613.692627 
	C2071.589844,2601.662109 2071.589844,2590.507812 2071.589844,2578.754395 
	C2065.967529,2578.375244 2060.867188,2578.031494 2054.863770,2577.626953 
	C2054.863770,2562.674316 2054.863770,2548.823486 2054.863770,2534.782959 
	C2042.674194,2534.782959 2031.492798,2534.782959 2018.834595,2534.782959 
	C2018.834595,2549.336426 2018.834595,2563.425049 2018.834595,2577.668213 
	C2013.846558,2578.129395 2010.309570,2578.456055 2006.400146,2578.817383 
	C2006.400146,2590.801270 2006.400146,2602.216309 2006.400146,2613.676514 
	C2010.640503,2614.173096 2014.190063,2614.588623 2018.978027,2615.149414 
	C2018.978027,2620.023193 2018.978027,2624.579346 2018.976196,2631.096191 
M449.979462,2513.499268 
	C449.979462,2577.927246 449.979462,2642.355469 449.979462,2707.171143 
	C462.449982,2707.171143 473.584625,2707.171143 484.610901,2707.171143 
	C486.836700,2695.292969 486.307739,2513.688965 483.960266,2506.289307 
	C474.514343,2506.289307 464.888855,2506.362793 455.265411,2506.253174 
	C451.443909,2506.209473 449.745575,2507.857422 449.979462,2513.499268 
M1782.632568,2591.578369 
	C1781.655762,2592.675049 1780.679077,2593.771729 1778.050293,2596.723145 
	C1778.050293,2589.302979 1778.050293,2584.210693 1778.050293,2578.482910 
	C1765.575684,2578.187256 1754.179932,2578.049805 1742.965576,2578.506104 
	C1741.035034,2599.326172 1741.841553,2699.994629 1743.866333,2707.121094 
	C1755.330444,2707.121094 1766.802002,2707.121094 1778.874634,2707.121094 
	C1779.046387,2703.280762 1779.307861,2700.029053 1779.317383,2696.777100 
	C1779.362305,2681.481445 1779.112671,2666.180664 1779.452393,2650.892578 
	C1779.583496,2644.993896 1780.188232,2638.857910 1782.010742,2633.300537 
	C1784.950195,2624.337158 1791.449097,2619.042480 1801.414551,2619.062012 
	C1804.271973,2619.067383 1807.129395,2619.062744 1809.801758,2619.062744 
	C1811.991333,2606.100098 1811.494263,2583.815186 1808.735229,2576.113525 
	C1805.429565,2576.611572 1801.274414,2576.124512 1798.576294,2577.878418 
	C1793.123169,2581.423584 1788.460815,2586.185059 1782.632568,2591.578369 
M979.879028,2668.999023 
	C979.717163,2639.404297 979.556824,2609.809570 979.368469,2580.215088 
	C979.366882,2579.961914 979.001526,2579.699707 978.782959,2579.463135 
	C978.557678,2579.219238 978.304199,2579.001465 978.292480,2578.990234 
	C966.889648,2578.990234 955.728271,2578.990234 944.557312,2578.990234 
	C944.557312,2622.104980 944.557312,2664.492676 944.557312,2707.170410 
	C956.432800,2707.170410 967.576660,2707.170410 979.878906,2707.170410 
	C979.878906,2694.750977 979.878906,2682.874756 979.879028,2668.999023 
M2279.571777,2707.720703 
	C2289.427490,2707.720703 2299.283203,2707.720703 2309.130127,2707.720703 
	C2309.130127,2663.857178 2309.130127,2621.461670 2309.130127,2578.852051 
	C2297.220947,2578.852051 2286.068359,2578.852051 2275.365479,2578.852051 
	C2274.729248,2579.690918 2274.368408,2579.944580 2274.367432,2580.199707 
	C2274.185791,2621.120850 2273.987305,2662.041992 2274.035645,2702.962891 
	C2274.037354,2704.531250 2276.426270,2706.096924 2279.571777,2707.720703 
M984.004272,2530.865723 
	C984.379883,2524.936523 982.471191,2519.702148 978.948303,2515.054932 
	C971.824646,2505.657715 958.949585,2503.507324 949.610962,2510.061523 
	C937.744690,2518.390381 935.796387,2536.280518 945.595032,2547.059082 
	C949.538757,2551.396973 954.091370,2554.204346 960.294922,2554.345947 
	C973.235779,2554.640625 981.039856,2547.635254 984.004272,2530.865723 
M2277.204102,2512.123535 
	C2270.234131,2518.235107 2268.751709,2526.161621 2269.820801,2534.854248 
	C2270.978760,2544.272461 2278.933350,2552.842285 2287.534180,2554.114990 
	C2298.430420,2555.727295 2307.578369,2550.786133 2311.917480,2540.944580 
	C2316.358398,2530.872314 2313.793701,2518.575684 2305.815674,2511.685059 
	C2297.748291,2504.717041 2289.389893,2504.531738 2277.204102,2512.123535 
z"/>
<path fill="#2358A6" opacity="1.000000" stroke="none" 
	d="
M330.315247,1900.000000 
	C330.315308,1879.055054 330.315308,1859.109985 330.315308,1837.799561 
	C342.112885,1837.799561 353.301880,1837.492065 364.446625,1838.057007 
	C366.698456,1838.171265 369.178741,1841.286255 370.885284,1843.526978 
	C396.687286,1877.405273 422.353973,1911.386719 448.099884,1945.307983 
	C481.487640,1989.297363 514.916260,2033.255859 548.338745,2077.218994 
	C548.932007,2077.999268 549.666321,2078.672607 551.113770,2080.238525 
	C557.470947,2072.040283 563.740906,2064.124756 569.831116,2056.073486 
	C617.599426,1992.923706 665.326233,1929.742432 713.086487,1866.586304 
	C719.107239,1858.624756 725.442444,1850.892944 731.243835,1842.777100 
	C733.817566,1839.177124 736.516235,1837.431519 741.067017,1837.573853 
	C750.953369,1837.883301 760.856140,1837.669189 771.203369,1837.669189 
	C771.203369,1976.934692 771.203369,2115.064941 771.203369,2253.763672 
	C732.210388,2253.763672 693.692627,2253.763672 653.880859,2253.763672 
	C653.880859,2213.543945 653.880859,2173.215576 653.880859,2132.887207 
	C653.128845,2132.638184 652.376892,2132.389160 651.624878,2132.139893 
	C618.393555,2174.666260 585.162231,2217.192383 551.031616,2260.869385 
	C517.133728,2217.609375 483.754639,2175.010986 450.375519,2132.412842 
	C449.764282,2132.722412 449.153046,2133.031738 448.541809,2133.341309 
	C448.541809,2173.162842 448.541809,2212.984131 448.541809,2254.281006 
	C409.110535,2254.385254 370.343170,2254.308105 330.315216,2254.335693 
	C330.315216,2136.044922 330.315216,2018.522461 330.315247,1900.000000 
z"/>
<path fill="#2358A6" opacity="1.000000" stroke="none" 
	d="
M1247.422485,2076.953613 
	C1240.900879,2121.432617 1221.932007,2159.054688 1191.075806,2190.052734 
	C1157.456177,2223.826660 1117.494263,2246.937012 1069.639893,2253.974365 
	C1054.265259,2256.235352 1038.569702,2257.785156 1023.068665,2257.450684 
	C968.590698,2256.275146 920.430115,2237.947266 879.288757,2201.845459 
	C844.682617,2171.478516 820.908691,2134.220459 812.806946,2088.824707 
	C798.452332,2008.393066 821.709351,1940.560303 884.798645,1887.374390 
	C909.047302,1866.931885 936.222168,1852.061890 966.876648,1843.573730 
	C990.487366,1837.035889 1014.562134,1834.861816 1038.906738,1835.765381 
	C1078.563477,1837.237183 1115.433838,1847.920532 1148.960083,1869.659424 
	C1198.908813,1902.046753 1232.646729,1945.987793 1245.268311,2004.784424 
	C1250.316406,2028.300415 1250.622559,2052.190674 1247.422485,2076.953613 
M1071.246094,1963.470703 
	C1049.383057,1952.692993 1026.570068,1952.022705 1003.239014,1957.150879 
	C985.023865,1961.154663 970.579163,1971.897583 957.462646,1984.249146 
	C934.202332,2006.153076 924.937561,2032.974731 931.385742,2064.744629 
	C935.574158,2085.380371 948.006836,2100.465576 963.337463,2113.918457 
	C989.385864,2136.776611 1019.462769,2143.020996 1052.657349,2135.852295 
	C1075.387695,2130.943604 1092.823120,2117.005127 1108.049316,2100.334961 
	C1134.524414,2071.349609 1135.418701,2026.561035 1110.615845,1995.985352 
	C1100.007812,1982.908325 1087.110962,1972.535034 1071.246094,1963.470703 
z"/>
<path fill="#2358A7" opacity="1.000000" stroke="none" 
	d="
M1538.313477,1918.000000 
	C1538.313477,1891.056396 1538.313477,1865.112793 1538.313477,1839.348389 
	C1546.077148,1837.326904 1642.288940,1836.637085 1659.011719,1838.389526 
	C1659.011719,1976.445801 1659.011719,2114.575195 1659.011719,2253.817627 
	C1647.378052,2254.816406 1635.523682,2254.622070 1623.727905,2253.851807 
	C1621.197266,2253.686523 1618.638794,2250.938721 1616.451172,2248.980713 
	C1581.278809,2217.498291 1546.140503,2185.977783 1511.043579,2154.411377 
	C1479.900391,2126.400879 1448.824341,2098.315430 1417.696167,2070.288086 
	C1415.015259,2067.874268 1412.167480,2065.645752 1407.908569,2062.087158 
	C1407.480835,2079.199707 1407.743652,2094.935303 1407.697021,2110.657959 
	C1407.649658,2126.654297 1407.686646,2142.650879 1407.686646,2158.647217 
	C1407.686646,2174.310303 1407.686646,2189.973633 1407.686646,2205.636719 
	C1407.686646,2221.540527 1407.686646,2237.444092 1407.686646,2253.755859 
	C1366.831421,2253.755859 1327.046021,2253.755859 1286.799805,2253.755859 
	C1286.799805,2115.049072 1286.799805,1976.919922 1286.799805,1837.741821 
	C1298.495239,1837.741821 1309.726196,1837.574585 1320.942749,1837.900879 
	C1322.892334,1837.957520 1325.016479,1839.836914 1326.663818,1841.316040 
	C1366.982422,1877.518799 1407.218628,1913.813354 1447.531494,1950.022583 
	C1476.712524,1976.233154 1505.980591,2002.346802 1535.228271,2028.483032 
	C1535.659058,2028.868164 1536.330078,2028.984619 1538.313354,2029.843018 
	C1538.313354,1992.494507 1538.313354,1955.747314 1538.313477,1918.000000 
z"/>
<path fill="#2358A6" opacity="1.000000" stroke="none" 
	d="
M1884.000000,2105.684082 
	C1867.038574,2105.684082 1851.077148,2105.684082 1834.402832,2105.684082 
	C1834.402832,2116.358887 1834.402832,2126.526611 1834.402832,2138.098633 
	C1847.818848,2138.579346 1861.668335,2138.242432 1875.498413,2138.302002 
	C1889.829712,2138.364014 1904.161621,2138.315674 1918.493164,2138.315674 
	C1932.491455,2138.315674 1946.489624,2138.315674 1960.487915,2138.315674 
	C1974.431274,2138.315674 1988.374634,2138.315674 2002.994873,2138.315674 
	C2002.994873,2177.525146 2002.994873,2215.969971 2002.994873,2255.051270 
	C1906.313965,2255.051270 1809.823975,2255.051270 1713.306030,2255.051270 
	C1711.238647,2248.088379 1710.341431,1858.128418 1712.443481,1838.313110 
	C1809.127319,1838.313110 1905.880615,1838.313110 2003.159668,1838.313110 
	C2003.159668,1877.208618 2003.159668,1915.723633 2003.159668,1955.431519 
	C1946.905396,1955.431519 1890.811646,1955.431519 1834.207764,1955.431519 
	C1834.207764,1966.479858 1834.207764,1976.352051 1834.207764,1987.154541 
	C1877.072021,1987.154541 1919.911011,1987.154541 1964.004150,1987.154541 
	C1964.671021,2026.834351 1964.161499,2065.610352 1964.356445,2105.684326 
	C1937.422363,2105.684326 1911.211182,2105.684326 1884.000000,2105.684082 
z"/>
<path fill="#2358A6" opacity="1.000000" stroke="none" 
	d="
M2139.293945,2046.709839 
	C2104.738281,1986.702515 2070.590088,1927.305542 2036.452148,1867.902832 
	C2031.162964,1858.699219 2025.920044,1849.469116 2020.624268,1840.196045 
	C2027.990723,1837.685181 2110.491943,1836.762085 2153.515381,1838.680054 
	C2175.988037,1876.462769 2198.875244,1914.942627 2222.429199,1954.543335 
	C2226.662598,1947.570190 2230.387695,1941.547119 2234.003662,1935.459106 
	C2252.011719,1905.139893 2270.047363,1874.836670 2287.907471,1844.430542 
	C2290.092529,1840.710205 2292.123291,1838.208618 2296.994873,1838.228516 
	C2338.317383,1838.397949 2379.641113,1838.339844 2420.964355,1838.387207 
	C2421.847412,1838.388184 2422.729980,1838.834229 2424.470947,1839.304565 
	C2423.206055,1841.940186 2422.263672,1844.279297 2421.017822,1846.443726 
	C2382.525879,1913.321045 2344.000977,1980.179443 2305.492432,2047.047241 
	C2302.007080,2053.099121 2299.107422,2059.564697 2295.031982,2065.182373 
	C2288.816406,2073.750244 2287.440918,2082.975098 2287.518555,2093.323486 
	C2287.889893,2142.975586 2287.685303,2192.632080 2287.685303,2242.286865 
	C2287.685303,2245.885254 2287.685059,2249.483643 2287.685059,2253.696777 
	C2244.325928,2253.696777 2201.813232,2253.696777 2158.000000,2253.696777 
	C2157.898438,2250.529541 2157.689453,2247.030029 2157.688232,2243.530518 
	C2157.667236,2191.542969 2157.602539,2139.554932 2157.766602,2087.567871 
	C2157.786377,2081.337891 2156.569092,2075.921143 2153.207520,2070.626953 
	C2148.398193,2063.053223 2144.177002,2055.105957 2139.293945,2046.709839 
z"/>
<path fill="#FFFFFF" opacity="1.000000" stroke="none" 
	d="
M1534.282959,784.000000 
	C1534.283081,988.198303 1534.283081,1191.396606 1534.283081,1395.150879 
	C1453.689087,1395.150879 1374.225586,1395.150879 1293.716064,1395.150879 
	C1293.716064,1145.505127 1293.716064,896.388733 1293.716064,645.779602 
	C1260.023682,656.021729 1227.688721,665.851196 1194.458252,675.952942 
	C1194.458252,588.426514 1194.458252,501.703583 1194.458252,414.244476 
	C1307.017822,381.111847 1419.626343,347.964783 1531.114380,315.147583 
	C1532.810425,315.969849 1533.150269,316.044617 1533.346802,316.254028 
	C1533.563965,316.485443 1533.774658,316.840027 1533.775024,317.141266 
	C1533.956299,472.427490 1534.119507,627.713745 1534.282959,784.000000 
z"/>
<path fill="#FFFDFB" opacity="1.000000" stroke="none" 
	d="
M2531.709229,2593.816162 
	C2538.055420,2588.450928 2543.396484,2582.612793 2549.972656,2579.062500 
	C2564.458740,2571.241699 2578.924561,2572.717041 2592.210449,2582.575684 
	C2596.454834,2585.725098 2600.221191,2589.519287 2605.322998,2593.998779 
	C2605.733398,2588.703125 2606.072266,2584.327393 2606.520996,2578.535156 
	C2617.637451,2577.979736 2628.781250,2578.357178 2640.771240,2578.345947 
	C2641.117920,2581.155518 2641.692383,2583.657227 2641.695801,2586.159424 
	C2641.751465,2626.824219 2641.889648,2667.489502 2641.679932,2708.153320 
	C2641.541016,2735.079590 2627.229736,2752.900391 2601.130859,2759.114990 
	C2584.284180,2763.126953 2567.392090,2763.074951 2550.816406,2757.749268 
	C2532.599854,2751.896484 2519.782715,2736.185547 2518.323486,2717.767090 
	C2530.308838,2717.767090 2542.245605,2717.613281 2554.170898,2717.922119 
	C2556.106689,2717.972168 2558.192139,2719.837891 2559.853027,2721.274902 
	C2562.865479,2723.881836 2565.336670,2727.169189 2568.517090,2729.517822 
	C2579.466797,2737.605957 2592.260254,2735.280762 2599.735596,2723.926025 
	C2606.717773,2713.321289 2606.374756,2701.471436 2605.581543,2687.882324 
	C2602.944824,2690.348389 2601.262451,2691.719482 2599.815674,2693.305664 
	C2578.945801,2716.182617 2547.917236,2709.687744 2531.850098,2689.407471 
	C2512.600830,2665.110596 2510.526367,2626.659424 2527.273438,2600.127686 
	C2528.516846,2598.157227 2529.929932,2596.293945 2531.709229,2593.816162 
M2575.031494,2670.395508 
	C2584.091064,2673.388916 2591.289307,2669.957031 2597.415283,2663.589600 
	C2608.280273,2652.297363 2609.314209,2630.960693 2599.775391,2618.459473 
	C2589.868652,2605.476074 2572.502686,2605.104248 2562.203125,2617.875977 
	C2550.390869,2632.523193 2549.962158,2658.229736 2575.031494,2670.395508 
z"/>
<path fill="#FFFDFB" opacity="1.000000" stroke="none" 
	d="
M165.727692,2620.208984 
	C168.010971,2626.528076 170.062088,2632.099365 172.113205,2637.670898 
	C172.728973,2637.718018 173.344742,2637.765137 173.960510,2637.812256 
	C188.873428,2595.640381 203.786346,2553.468262 218.856476,2510.851807 
	C231.868271,2510.851807 244.666962,2510.851807 259.194519,2510.851807 
	C236.026825,2577.019531 213.213440,2642.175293 190.419281,2707.276123 
	C187.166718,2707.463135 184.875732,2707.697021 182.583572,2707.708984 
	C173.946548,2707.754150 165.309174,2707.727051 155.720535,2707.727051 
	C132.854401,2642.316650 110.071548,2577.144287 86.694267,2510.271729 
	C94.663948,2510.271729 100.865158,2510.271729 107.066368,2510.271729 
	C113.367050,2510.271729 119.667732,2510.271729 126.860123,2510.271729 
	C139.797455,2546.834717 152.646500,2583.148193 165.727692,2620.208984 
z"/>
<path fill="#FFFEFC" opacity="1.000000" stroke="none" 
	d="
M2146.294922,2528.046143 
	C2146.295166,2549.640137 2146.295166,2570.240234 2146.295166,2592.814697 
	C2150.329346,2589.948730 2153.175537,2588.070557 2155.865479,2585.990723 
	C2165.835205,2578.282471 2177.059570,2574.824707 2189.553223,2576.619141 
	C2205.608887,2578.924805 2217.509277,2591.112305 2221.583252,2609.498047 
	C2222.941895,2615.629883 2223.774414,2622.000732 2223.844727,2628.273682 
	C2224.117920,2652.585205 2223.995361,2676.901367 2223.989258,2701.215820 
	C2223.988770,2702.858398 2223.734375,2704.500977 2223.489258,2707.451904 
	C2212.008301,2708.026367 2200.581787,2707.608887 2188.513672,2707.670654 
	C2188.248291,2703.920654 2187.874756,2701.033936 2187.866699,2698.145996 
	C2187.812500,2679.160400 2188.298096,2660.157959 2187.597656,2641.198242 
	C2187.336914,2634.138916 2185.282715,2626.766602 2182.373047,2620.288818 
	C2179.349365,2613.556885 2172.988037,2609.873047 2165.165283,2610.785889 
	C2157.437500,2611.688232 2152.031006,2616.364990 2150.262451,2623.708740 
	C2148.253662,2632.050781 2146.717773,2640.685547 2146.468506,2649.236572 
	C2145.916016,2668.183594 2146.296631,2687.157959 2146.296631,2707.338867 
	C2134.291748,2708.041260 2122.857666,2707.703613 2110.698730,2707.576416 
	C2110.698730,2640.450195 2110.698730,2574.047852 2110.698730,2506.960938 
	C2122.279785,2506.960938 2133.709229,2506.960938 2146.294922,2506.960938 
	C2146.294922,2513.913818 2146.294922,2520.483154 2146.294922,2528.046143 
z"/>
<path fill="#FFFDFB" opacity="1.000000" stroke="none" 
	d="
M399.738617,2602.040039 
	C399.738495,2637.568115 399.738495,2672.104736 399.738495,2707.180664 
	C387.420105,2707.180664 376.271515,2707.180664 364.144592,2707.180664 
	C364.144592,2701.015381 364.144592,2695.209229 364.144592,2686.803467 
	C360.301147,2690.827393 357.995453,2692.919434 356.064636,2695.313477 
	C339.365417,2716.019531 310.329376,2712.679443 295.257355,2696.669678 
	C278.539276,2678.911865 273.038116,2657.631104 275.002625,2634.110107 
	C276.581024,2615.212402 283.816772,2598.599365 298.390869,2585.921143 
	C317.323517,2569.450928 338.577118,2570.200684 356.337738,2587.749268 
	C358.197021,2589.586426 359.463287,2592.023682 361.004608,2594.182617 
	C361.754944,2593.810303 362.505310,2593.437744 363.255646,2593.065186 
	C363.599548,2588.667236 363.943451,2584.269287 364.281586,2579.945068 
	C371.537201,2577.833252 388.500031,2577.582275 399.738739,2579.592285 
	C399.738739,2586.581055 399.738739,2593.814941 399.738617,2602.040039 
M324.068085,2669.356934 
	C337.926453,2676.179932 349.005096,2673.800293 357.041229,2661.954102 
	C363.691864,2652.149902 364.368500,2641.394531 360.255768,2630.580078 
	C356.057159,2619.540039 347.112213,2613.566650 336.783539,2613.881104 
	C327.116547,2614.175293 318.489868,2620.587646 315.353302,2631.720459 
	C311.629791,2644.936523 311.095398,2658.085205 324.068085,2669.356934 
z"/>
<path fill="#FFFDFA" opacity="1.000000" stroke="none" 
	d="
M2434.105957,2615.890625 
	C2422.714844,2605.753662 2411.562012,2607.040527 2404.864014,2619.559326 
	C2401.836182,2625.218506 2399.904541,2632.080322 2399.639893,2638.485840 
	C2398.856445,2657.451904 2399.146729,2676.462646 2399.026367,2695.455811 
	C2399.003418,2699.064209 2399.023193,2702.673096 2399.023193,2706.995850 
	C2386.592773,2706.995850 2375.208984,2706.995850 2363.326660,2706.995850 
	C2363.326660,2664.124023 2363.326660,2621.669434 2363.326660,2578.739746 
	C2375.156738,2578.739746 2386.335938,2578.739746 2397.937988,2578.739746 
	C2398.620605,2582.563721 2399.246338,2586.069336 2399.993164,2590.252686 
	C2402.067627,2589.100586 2403.801025,2588.298584 2405.356689,2587.236572 
	C2407.828369,2585.549561 2410.071533,2583.513916 2412.601562,2581.928955 
	C2437.250244,2566.484131 2462.451172,2574.766113 2471.992676,2602.231934 
	C2475.100830,2611.178223 2476.509766,2621.067383 2476.776367,2630.579102 
	C2477.439209,2654.222900 2477.010010,2677.897949 2476.969482,2701.560303 
	C2476.966797,2703.175293 2476.551758,2704.789795 2476.240234,2707.040039 
	C2464.476074,2707.040039 2453.028076,2707.040039 2440.782715,2707.040039 
	C2440.556396,2704.079346 2440.154053,2701.206543 2440.145996,2698.332520 
	C2440.088623,2677.669434 2440.045410,2657.006104 2440.143799,2636.343506 
	C2440.178223,2629.148438 2438.870117,2622.447510 2434.105957,2615.890625 
z"/>
<path fill="#FFFDFB" opacity="1.000000" stroke="none" 
	d="
M1926.439331,2720.520020 
	C1920.465820,2735.397705 1914.782227,2749.559326 1909.071289,2763.789551 
	C1896.616211,2763.789551 1884.769287,2763.789551 1871.751343,2763.789551 
	C1876.369873,2752.207764 1880.636475,2741.451172 1884.948730,2730.713135 
	C1888.297974,2722.373047 1891.483643,2713.956787 1895.164429,2705.764404 
	C1897.531128,2700.496826 1897.184937,2696.049072 1894.704590,2690.738770 
	C1879.066284,2657.258545 1863.811768,2623.598633 1848.467407,2589.981689 
	C1846.971313,2586.704102 1845.725586,2583.312256 1843.786865,2578.559326 
	C1850.868164,2578.452148 1856.982300,2578.324463 1863.096924,2578.277344 
	C1869.074219,2578.231201 1875.052002,2578.267334 1881.601074,2578.267334 
	C1892.678345,2602.333496 1903.647461,2626.165039 1915.598999,2652.130859 
	C1922.438477,2638.809326 1926.616943,2626.416992 1931.684082,2614.455566 
	C1936.729614,2602.544922 1941.483398,2590.510742 1946.347412,2578.574219 
	C1958.439209,2578.574219 1969.713989,2578.574219 1982.601807,2578.574219 
	C1974.160278,2603.056152 1964.034302,2626.015625 1954.902100,2649.335205 
	C1945.677856,2672.890137 1936.133545,2696.319580 1926.439331,2720.520020 
z"/>
<path fill="#FFFDFB" opacity="1.000000" stroke="none" 
	d="
M1628.411865,2651.735352 
	C1625.828979,2651.879150 1624.198120,2652.019531 1622.649902,2652.153076 
	C1621.050903,2663.402588 1626.559814,2673.842773 1636.265625,2678.416992 
	C1646.642090,2683.307129 1656.167603,2679.710938 1670.867676,2664.753174 
	C1680.829956,2668.291016 1691.328003,2672.019287 1702.657471,2676.042480 
	C1692.592163,2695.423340 1678.013672,2706.936768 1657.481201,2709.654541 
	C1649.012451,2710.775391 1640.069824,2710.571045 1631.631836,2709.196045 
	C1614.914185,2706.470947 1601.794922,2697.152100 1593.970093,2682.229004 
	C1580.789429,2657.092285 1579.377441,2630.972656 1593.220581,2605.706543 
	C1615.296265,2565.415283 1667.835938,2563.355225 1693.717041,2601.235352 
	C1702.970947,2614.779541 1707.556396,2634.843994 1704.784546,2651.732178 
	C1679.788940,2651.732178 1654.576416,2651.732178 1628.411865,2651.735352 
M1646.560669,2600.472412 
	C1630.208984,2602.217041 1622.244751,2610.147705 1622.412231,2625.141113 
	C1637.404541,2625.141113 1652.403931,2625.141113 1667.439941,2625.141113 
	C1666.607544,2611.301514 1661.044189,2604.391113 1646.560669,2600.472412 
z"/>
<path fill="#FFFDFB" opacity="1.000000" stroke="none" 
	d="
M808.856445,2615.453613 
	C813.954041,2631.769531 814.750916,2638.636475 813.002136,2651.436523 
	C785.667114,2651.436523 758.156006,2651.436523 730.826904,2651.436523 
	C728.980530,2663.254883 734.286743,2674.273193 744.265137,2678.277832 
	C758.946167,2684.169434 769.086914,2676.357666 778.372742,2664.582764 
	C788.813904,2668.287842 799.316223,2672.014648 810.652039,2676.037109 
	C800.592041,2695.434082 786.002441,2706.944824 765.458252,2709.656494 
	C756.984436,2710.774902 748.036987,2710.566162 739.595032,2709.186523 
	C722.866089,2706.452393 709.743530,2697.115723 701.939392,2682.171143 
	C688.799500,2657.009277 687.449524,2630.932373 701.299072,2605.622314 
	C712.546692,2585.067383 730.457642,2573.918945 754.376282,2574.343506 
	C777.611877,2574.756104 793.719177,2586.941650 804.869446,2606.544434 
	C806.341553,2609.132812 807.326965,2611.997559 808.856445,2615.453613 
M775.081116,2618.651855 
	C773.437927,2615.413086 772.185547,2611.890137 770.077454,2608.989258 
	C764.067688,2600.718262 754.136719,2598.319336 744.314392,2602.344727 
	C735.124268,2606.110840 729.778503,2614.994385 730.771362,2625.336914 
	C745.559753,2625.336914 760.389526,2625.336914 775.594543,2625.336914 
	C775.594543,2623.376221 775.594543,2621.775879 775.081116,2618.651855 
z"/>
<path fill="#FFFDFB" opacity="1.000000" stroke="none" 
	d="
M1391.784912,2612.535400 
	C1396.622803,2625.212646 1399.093750,2637.457031 1397.359009,2651.638672 
	C1369.504028,2651.638672 1341.725464,2651.638672 1313.999512,2651.638672 
	C1313.852051,2665.053955 1319.358887,2675.248291 1329.056274,2678.657227 
	C1343.375366,2683.690918 1353.301025,2676.235596 1362.284302,2664.577393 
	C1372.729736,2668.274414 1383.229248,2671.990723 1394.565918,2676.003418 
	C1384.687744,2695.451904 1370.059082,2706.864746 1349.568481,2709.642578 
	C1341.100220,2710.790771 1332.146484,2710.583008 1323.702148,2709.213135 
	C1306.974487,2706.499512 1293.831665,2697.195801 1285.991577,2682.265869 
	C1272.785522,2657.118164 1271.493652,2631.053223 1285.242432,2605.709473 
	C1296.011108,2585.859375 1313.203125,2574.707031 1336.277344,2574.329102 
	C1359.520630,2573.948486 1376.073608,2585.426514 1387.868896,2604.701172 
	C1389.255615,2606.967041 1390.315186,2609.433350 1391.784912,2612.535400 
M1348.771118,2603.744873 
	C1330.278687,2595.885498 1313.961670,2605.817627 1314.466675,2625.084229 
	C1329.461060,2625.084229 1344.462402,2625.084229 1359.990723,2625.084229 
	C1359.337524,2616.368652 1355.931396,2609.895996 1348.771118,2603.744873 
z"/>
<path fill="#FFFDFB" opacity="1.000000" stroke="none" 
	d="
M1129.982300,2707.729980 
	C1123.726685,2707.729980 1118.441772,2707.729980 1112.182617,2707.729980 
	C1111.927612,2703.868164 1111.545898,2700.693115 1111.536499,2697.517090 
	C1111.479248,2678.184082 1111.771851,2658.845215 1111.352661,2639.521484 
	C1111.218140,2633.319336 1109.988525,2626.913574 1107.980835,2621.038086 
	C1105.586182,2614.030273 1100.232788,2609.097656 1092.439819,2608.795166 
	C1085.214233,2608.514404 1079.093506,2612.080078 1076.320435,2618.655029 
	C1073.403442,2625.572021 1070.636475,2633.081055 1070.288208,2640.448730 
	C1069.407959,2659.074951 1069.920654,2677.767334 1069.878296,2696.433105 
	C1069.870850,2699.716309 1069.877319,2702.999512 1069.877319,2706.997803 
	C1057.953979,2706.997803 1046.803955,2706.997803 1035.619385,2706.997803 
	C1033.610718,2700.203369 1032.861938,2595.342041 1034.818848,2579.011719 
	C1046.145752,2579.011719 1057.570435,2579.011719 1069.347778,2579.011719 
	C1069.650879,2583.035156 1069.922485,2586.640137 1070.275024,2591.320312 
	C1072.452637,2589.871826 1074.276733,2588.901611 1075.814819,2587.594482 
	C1083.314941,2581.221191 1091.624512,2576.462158 1101.432251,2574.806152 
	C1112.632202,2572.914307 1122.556763,2575.595215 1130.937866,2583.480469 
	C1142.042969,2593.928467 1147.092163,2607.375000 1147.458740,2622.003418 
	C1148.159546,2649.967041 1147.662354,2677.960693 1147.662354,2707.281982 
	C1141.930420,2707.435791 1136.441772,2707.583008 1129.982300,2707.729980 
z"/>
<path fill="#FFFEFC" opacity="1.000000" stroke="none" 
	d="
M540.690186,2578.315918 
	C551.236511,2578.284912 560.851929,2578.284912 571.376038,2578.284912 
	C571.669189,2581.657715 572.116760,2584.491943 572.128784,2587.328125 
	C572.199341,2603.970703 571.806335,2620.625977 572.345520,2637.251709 
	C572.567505,2644.095459 573.883362,2651.179443 576.209961,2657.608643 
	C579.081970,2665.544678 585.216736,2671.108154 594.175293,2671.281982 
	C603.511902,2671.463379 610.174194,2665.930908 613.481201,2657.850342 
	C616.054626,2651.562256 617.277466,2644.385498 617.520447,2637.547607 
	C618.087402,2621.590088 617.702759,2605.599121 617.703491,2589.621582 
	C617.703674,2586.328613 617.703491,2583.035889 617.703491,2579.009521 
	C629.828979,2579.009521 641.258972,2579.009521 653.390564,2579.009521 
	C653.607361,2582.069824 653.981995,2584.954590 653.988831,2587.840332 
	C654.038208,2608.810791 653.359863,2629.805908 654.159424,2650.745850 
	C655.483398,2685.417236 626.619080,2713.720459 586.952271,2709.372070 
	C555.434082,2705.917236 536.281799,2683.999756 536.022827,2652.042969 
	C535.847534,2630.408447 535.903564,2608.770264 536.074707,2587.135742 
	C536.099915,2583.951172 534.031128,2579.356201 540.690186,2578.315918 
z"/>
<path fill="#FFFDFB" opacity="1.000000" stroke="none" 
	d="
M1510.324097,2694.468506 
	C1508.274902,2699.105225 1506.518311,2703.026611 1504.623657,2707.256592 
	C1494.833374,2707.256592 1485.265137,2707.256592 1474.603882,2707.256592 
	C1456.401855,2664.966797 1438.061523,2622.355713 1419.299438,2578.764648 
	C1432.685913,2578.764648 1444.530640,2578.764648 1457.250610,2578.764648 
	C1467.682861,2602.826416 1478.208618,2627.104004 1489.722168,2653.659912 
	C1501.111938,2627.394043 1511.629272,2603.140381 1522.227905,2578.699219 
	C1534.576904,2578.699219 1546.478027,2578.699219 1559.872437,2578.699219 
	C1543.259399,2617.504883 1526.938110,2655.629150 1510.324097,2694.468506 
z"/>
<path fill="#FFFDFA" opacity="1.000000" stroke="none" 
	d="
M2018.977051,2630.115723 
	C2018.978027,2624.579346 2018.978027,2620.023193 2018.978027,2615.149414 
	C2014.190063,2614.588623 2010.640503,2614.173096 2006.400146,2613.676514 
	C2006.400146,2602.216309 2006.400146,2590.801270 2006.400146,2578.817383 
	C2010.309570,2578.456055 2013.846558,2578.129395 2018.834595,2577.668213 
	C2018.834595,2563.425049 2018.834595,2549.336426 2018.834595,2534.782959 
	C2031.492798,2534.782959 2042.674194,2534.782959 2054.863770,2534.782959 
	C2054.863770,2548.823486 2054.863770,2562.674316 2054.863770,2577.626953 
	C2060.867188,2578.031494 2065.967529,2578.375244 2071.589844,2578.754395 
	C2071.589844,2590.507812 2071.589844,2601.662109 2071.589844,2613.692627 
	C2066.670654,2614.043457 2061.854736,2614.387207 2055.974121,2614.806641 
	C2054.622559,2625.088379 2055.531006,2635.306396 2055.363281,2645.450928 
	C2055.197998,2655.434326 2055.326904,2665.422607 2055.326904,2675.408691 
	C2055.326904,2685.676514 2055.327148,2695.944580 2055.327148,2707.507080 
	C2043.126709,2707.892578 2031.733398,2707.818359 2018.976196,2707.517578 
	C2018.976196,2681.517822 2018.976196,2656.306885 2018.977051,2630.115723 
z"/>
<path fill="#FFFDFB" opacity="1.000000" stroke="none" 
	d="
M449.986206,2512.558105 
	C449.745575,2507.857422 451.443909,2506.209473 455.265411,2506.253174 
	C464.888855,2506.362793 474.514343,2506.289307 483.960266,2506.289307 
	C486.307739,2513.688965 486.836700,2695.292969 484.610901,2707.171143 
	C473.584625,2707.171143 462.449982,2707.171143 449.979462,2707.171143 
	C449.979462,2642.355469 449.979462,2577.927246 449.986206,2512.558105 
z"/>
<path fill="#FEFCF9" opacity="1.000000" stroke="none" 
	d="
M1783.052490,2591.011719 
	C1788.460815,2586.185059 1793.123169,2581.423584 1798.576294,2577.878418 
	C1801.274414,2576.124512 1805.429565,2576.611572 1808.735229,2576.113525 
	C1811.494263,2583.815186 1811.991333,2606.100098 1809.801758,2619.062744 
	C1807.129395,2619.062744 1804.271973,2619.067383 1801.414551,2619.062012 
	C1791.449097,2619.042480 1784.950195,2624.337158 1782.010742,2633.300537 
	C1780.188232,2638.857910 1779.583496,2644.993896 1779.452393,2650.892578 
	C1779.112671,2666.180664 1779.362305,2681.481445 1779.317383,2696.777100 
	C1779.307861,2700.029053 1779.046387,2703.280762 1778.874634,2707.121094 
	C1766.802002,2707.121094 1755.330444,2707.121094 1743.866333,2707.121094 
	C1741.841553,2699.994629 1741.035034,2599.326172 1742.965576,2578.506104 
	C1754.179932,2578.049805 1765.575684,2578.187256 1778.050293,2578.482910 
	C1778.050293,2584.210693 1778.050293,2589.302979 1778.050293,2596.723145 
	C1780.679077,2593.771729 1781.655762,2592.675049 1783.052490,2591.011719 
z"/>
<path fill="#FFFDFB" opacity="1.000000" stroke="none" 
	d="
M979.878967,2669.998779 
	C979.878906,2682.874756 979.878906,2694.750977 979.878906,2707.170410 
	C967.576660,2707.170410 956.432800,2707.170410 944.557312,2707.170410 
	C944.557312,2664.492676 944.557312,2622.104980 944.557312,2578.990234 
	C955.728271,2578.990234 966.889648,2578.990234 978.292480,2578.990234 
	C978.304199,2579.001465 978.557678,2579.219238 978.782959,2579.463135 
	C979.001526,2579.699707 979.366882,2579.961914 979.368469,2580.215088 
	C979.556824,2609.809570 979.717163,2639.404297 979.878967,2669.998779 
z"/>
<path fill="#FFFDFB" opacity="1.000000" stroke="none" 
	d="
M2278.637207,2707.692383 
	C2276.426270,2706.096924 2274.037354,2704.531250 2274.035645,2702.962891 
	C2273.987305,2662.041992 2274.185791,2621.120850 2274.367432,2580.199707 
	C2274.368408,2579.944580 2274.729248,2579.690918 2275.365479,2578.852051 
	C2286.068359,2578.852051 2297.220947,2578.852051 2309.130127,2578.852051 
	C2309.130127,2621.461670 2309.130127,2663.857178 2309.130127,2707.720703 
	C2299.283203,2707.720703 2289.427490,2707.720703 2278.637207,2707.692383 
z"/>
<path fill="#FFFDFB" opacity="1.000000" stroke="none" 
	d="
M983.995361,2531.695312 
	C981.039856,2547.635254 973.235779,2554.640625 960.294922,2554.345947 
	C954.091370,2554.204346 949.538757,2551.396973 945.595032,2547.059082 
	C935.796387,2536.280518 937.744690,2518.390381 949.610962,2510.061523 
	C958.949585,2503.507324 971.824646,2505.657715 978.948303,2515.054932 
	C982.471191,2519.702148 984.379883,2524.936523 983.995361,2531.695312 
z"/>
<path fill="#FFFDFB" opacity="1.000000" stroke="none" 
	d="
M2277.760254,2511.599609 
	C2289.389893,2504.531738 2297.748291,2504.717041 2305.815674,2511.685059 
	C2313.793701,2518.575684 2316.358398,2530.872314 2311.917480,2540.944580 
	C2307.578369,2550.786133 2298.430420,2555.727295 2287.534180,2554.114990 
	C2278.933350,2552.842285 2270.978760,2544.272461 2269.820801,2534.854248 
	C2268.751709,2526.161621 2270.234131,2518.235107 2277.760254,2511.599609 
z"/>
<path fill="#FEFEFF" opacity="1.000000" stroke="none" 
	d="
M1071.930542,1963.773926 
	C1087.110962,1972.535034 1100.007812,1982.908325 1110.615845,1995.985352 
	C1135.418701,2026.561035 1134.524414,2071.349609 1108.049316,2100.334961 
	C1092.823120,2117.005127 1075.387695,2130.943604 1052.657349,2135.852295 
	C1019.462769,2143.020996 989.385864,2136.776611 963.337463,2113.918457 
	C948.006836,2100.465576 935.574158,2085.380371 931.385742,2064.744629 
	C924.937561,2032.974731 934.202332,2006.153076 957.462646,1984.249146 
	C970.579163,1971.897583 985.023865,1961.154663 1003.239014,1957.150879 
	C1026.570068,1952.022705 1049.383057,1952.692993 1071.930542,1963.773926 
z"/>
<path fill="#EEA63B" opacity="1.000000" stroke="none" 
	d="
M2574.306152,2670.172852 
	C2549.962158,2658.229736 2550.390869,2632.523193 2562.203125,2617.875977 
	C2572.502686,2605.104248 2589.868652,2605.476074 2599.775391,2618.459473 
	C2609.314209,2630.960693 2608.280273,2652.297363 2597.415283,2663.589600 
	C2591.289307,2669.957031 2584.091064,2673.388916 2574.306152,2670.172852 
z"/>
<path fill="#EEA63A" opacity="1.000000" stroke="none" 
	d="
M323.477936,2668.873047 
	C311.095398,2658.085205 311.629791,2644.936523 315.353302,2631.720459 
	C318.489868,2620.587646 327.116547,2614.175293 336.783539,2613.881104 
	C347.112213,2613.566650 356.057159,2619.540039 360.255768,2630.580078 
	C364.368500,2641.394531 363.691864,2652.149902 357.041229,2661.954102 
	C349.005096,2673.800293 337.926453,2676.179932 323.477936,2668.873047 
z"/>
<path fill="#EFA840" opacity="1.000000" stroke="none" 
	d="
M1647.341553,2600.530273 
	C1661.044189,2604.391113 1666.607544,2611.301514 1667.439941,2625.141113 
	C1652.403931,2625.141113 1637.404541,2625.141113 1622.412231,2625.141113 
	C1622.244751,2610.147705 1630.208984,2602.217041 1647.341553,2600.530273 
z"/>
<path fill="#EFA840" opacity="1.000000" stroke="none" 
	d="
M775.337830,2619.413574 
	C775.594543,2621.775879 775.594543,2623.376221 775.594543,2625.336914 
	C760.389526,2625.336914 745.559753,2625.336914 730.771362,2625.336914 
	C729.778503,2614.994385 735.124268,2606.110840 744.314392,2602.344727 
	C754.136719,2598.319336 764.067688,2600.718262 770.077454,2608.989258 
	C772.185547,2611.890137 773.437927,2615.413086 775.337830,2619.413574 
z"/>
<path fill="#EFA840" opacity="1.000000" stroke="none" 
	d="
M1349.386719,2604.187012 
	C1355.931396,2609.895996 1359.337524,2616.368652 1359.990723,2625.084229 
	C1344.462402,2625.084229 1329.461060,2625.084229 1314.466675,2625.084229 
	C1313.961670,2605.817627 1330.278687,2595.885498 1349.386719,2604.187012 
z"/>
</svg>